<?xml version="1.0" encoding="UTF-8"?><svg xmlns="http://www.w3.org/2000/svg" viewBox="0 0 36.8 83.15"><defs><style>.cls-1,.cls-2{mix-blend-mode:multiply;}.cls-1,.cls-3,.cls-4,.cls-5,.cls-6,.cls-7,.cls-8,.cls-9,.cls-10,.cls-11,.cls-12,.cls-13,.cls-14,.cls-15,.cls-16,.cls-17,.cls-18,.cls-19,.cls-20{stroke-width:0px;}.cls-1,.cls-17{fill:#e8e8e8;}.cls-21{opacity:.4;}.cls-22{opacity:.6;}.cls-23{isolation:isolate;}.cls-3{fill:#f9c98a;}.cls-4{fill:#774a15;}.cls-5{fill:#4f2e16;}.cls-6{fill:#89570e;}.cls-7{fill:#895b1f;}.cls-8{fill:#9b7451;}.cls-9{fill:#a8732c;}.cls-10{fill:#dda866;}.cls-11{fill:#caaf8f;}.cls-12{fill:#e2ac62;}.cls-13{fill:#bc7c46;}.cls-14{fill:#b2aeab;}.cls-15{fill:#b78e44;}.cls-16{fill:#fff;}.cls-18{fill:#e5e0dc;}.cls-19{fill:#e5e5e5;}.cls-20{fill:#ffdda8;}</style></defs><g class="cls-23"><g id="Layer_1"><g class="cls-2"><polygon class="cls-19" points="36.46 72.43 17.9 83.15 17.43 82.88 16.89 82.57 16.11 82.11 13.71 80.72 11.07 79.2 9.74 78.44 7.35 77.05 4.78 75.57 3.44 74.79 2.97 74.52 1.96 73.94 20.52 63.23 21.53 63.81 35.45 71.85 36.46 72.43"/></g><polygon class="cls-7" points="36.79 72.45 19.15 82.63 2.03 72.75 2.03 72.35 19.67 62.56 36.79 72.05 36.79 72.45"/><polygon class="cls-15" points="36.8 72.04 19.15 82.24 18.39 81.8 17.12 81.06 14.85 79.75 12.34 78.3 11.07 77.57 8.79 76.25 6.36 74.84 5.08 74.11 2.81 72.8 2.03 72.34 2.81 71.89 5.08 70.58 6.36 69.84 19.67 62.16 36.8 72.04"/><polygon class="cls-12" points="21.84 63.42 4.2 73.6 4.15 73.57 21.79 63.38 21.84 63.42"/><polygon class="cls-12" points="23.98 64.65 6.34 74.83 6.29 74.8 23.93 64.62 23.98 64.65"/><polygon class="cls-12" points="26.12 65.89 8.48 76.07 8.43 76.04 26.07 65.86 26.12 65.89"/><polygon class="cls-12" points="28.26 67.12 10.62 77.31 10.57 77.28 28.21 67.09 28.26 67.12"/><polygon class="cls-12" points="30.4 68.36 12.76 78.54 12.71 78.51 30.35 68.33 30.4 68.36"/><polygon class="cls-12" points="32.54 69.59 14.9 79.78 14.85 79.75 32.49 69.56 32.54 69.59"/><polygon class="cls-12" points="34.68 70.83 17.04 81.01 16.99 80.98 34.63 70.8 34.68 70.83"/><path class="cls-4" d="M5.68,69.89v4.58l-2.27-1.31v-2.07c.74-.43,1.51-.81,2.27-1.2Z"/><polygon class="cls-7" points="6.96 69.85 6.96 73.71 5.68 74.46 5.68 69.85 6.96 69.85"/><polygon class="cls-4" points="11.68 73.39 11.68 77.93 9.4 76.61 9.4 73.39 11.68 73.39"/><polygon class="cls-7" points="12.94 73.39 12.94 77.17 11.68 77.93 11.68 73.39 12.94 73.39"/><polygon class="cls-4" points="27.17 73.19 27.17 77.67 24.89 76.35 24.89 73.19 27.17 73.19"/><polygon class="cls-7" points="28.43 73.19 28.43 76.91 27.17 77.67 27.17 73.19 28.43 73.19"/><polygon class="cls-4" points="19.13 77.85 19.13 82.33 16.86 81.01 16.86 77.85 19.13 77.85"/><polygon class="cls-7" points="20.4 77.85 20.4 81.57 19.13 82.33 19.13 77.85 20.4 77.85"/><polygon class="cls-4" points="32.54 70.57 32.54 71.88 34.82 73.2 34.82 70.57 32.54 70.57"/><polygon class="cls-7" points="34.82 70.57 34.82 73.2 36.08 72.44 36.08 70.57 34.82 70.57"/><polygon class="cls-9" points="36.79 70.71 19.15 80.9 2.03 71.01 2.03 70.64 19.67 60.82 36.79 70.33 36.79 70.71"/><polygon class="cls-12" points="36.79 70.33 19.15 80.52 2.03 70.64 19.67 60.45 36.79 70.33"/><polygon class="cls-6" points="21.84 61.7 4.2 71.89 4.15 71.86 21.79 61.67 21.84 61.7"/><polygon class="cls-6" points="23.98 62.94 6.34 73.12 6.29 73.09 23.93 62.91 23.98 62.94"/><polygon class="cls-6" points="26.12 64.17 8.48 74.36 8.43 74.33 26.07 64.14 26.12 64.17"/><polygon class="cls-6" points="28.26 65.41 10.62 75.59 10.57 75.56 28.21 65.38 28.26 65.41"/><polygon class="cls-6" points="30.4 66.64 12.76 76.83 12.71 76.8 30.35 66.62 30.4 66.64"/><polygon class="cls-6" points="32.54 67.88 14.9 78.07 14.85 78.04 32.49 67.85 32.54 67.88"/><polygon class="cls-6" points="34.68 69.11 17.04 79.3 16.99 79.27 34.63 69.08 34.68 69.11"/><polygon class="cls-4" points="19.15 82.63 19.13 82.23 2.03 72.34 2.03 72.75 19.15 82.63"/><polygon class="cls-1" points="20.29 70.66 20.34 70.62 11.36 65.42 2.45 70.56 9.98 74.92 9.93 74.95 18.92 80.15 35.01 70.53 20.29 70.66"/><g class="cls-2"><polygon class="cls-17" points="8.91 66.48 17.9 71.68 26.81 66.54 17.82 61.34 8.91 66.48"/></g><path class="cls-20" d="M24.23,54.3l-.96-.55-3-1.73-7.7,4.45,2.99,1.73.96.55,3.31,1.91,7.69-4.45h0s-3.3-1.91-3.3-1.91Z"/><path class="cls-3" d="M20.27,52.17l-7.43,4.29,6.99,3.99,7.43-4.25-6.99-4.04Z"/><polygon class="cls-13" points="19.83 60.65 19.82 70.54 16.5 68.65 15.54 68.1 12.57 66.4 12.57 56.46 19.83 60.65"/><path class="cls-10" d="M19.83,60.65v9.89s7.7-4.41,7.7-4.41v-9.93l-7.7,4.45Z"/><polygon class="cls-8" points="16.5 58.76 16.5 68.65 15.54 68.1 15.54 58.21 16.5 58.76"/><polygon class="cls-11" points="24.23 54.3 21.54 55.85 20.57 56.41 16.53 58.74 16.5 58.76 15.53 58.21 15.56 58.19 19.61 55.85 20.57 55.3 23.27 53.74 24.23 54.3"/><path class="cls-20" d="M16.15,58.96l-.96-.55-3-1.73-7.7,4.45,2.99,1.73.96.55,3.31,1.91,7.69-4.45h0s-3.3-1.91-3.3-1.91Z"/><path class="cls-3" d="M12.19,56.83l-7.43,4.3,6.99,3.99,7.43-4.25-6.99-4.04Z"/><polygon class="cls-13" points="11.75 65.32 11.75 75.21 8.43 73.32 7.46 72.76 4.49 71.07 4.49 61.13 11.75 65.32"/><path class="cls-10" d="M11.75,65.32v9.89s7.7-4.41,7.7-4.41v-9.93l-7.7,4.45Z"/><polygon class="cls-8" points="8.43 63.42 8.43 73.32 7.46 72.76 7.46 62.87 8.43 63.42"/><polygon class="cls-11" points="16.15 58.96 13.46 60.52 12.49 61.08 8.45 63.41 8.42 63.42 7.46 62.87 7.49 62.85 11.53 60.52 12.49 59.96 15.19 58.41 16.15 58.96"/><g class="cls-2"><polygon class="cls-17" points="16.39 70.87 25.38 76.07 34.28 70.93 25.3 65.73 16.39 70.87"/></g><path class="cls-20" d="M31.71,58.69l-.96-.55-2.99-1.73-7.7,4.45,2.99,1.73.96.55,3.31,1.91,7.69-4.45h0s-3.3-1.91-3.3-1.91Z"/><path class="cls-3" d="M27.75,56.56l-7.43,4.29,6.99,3.99,7.43-4.25-6.99-4.04Z"/><polygon class="cls-13" points="27.31 65.04 27.3 74.93 23.99 73.04 23.02 72.49 20.05 70.8 20.05 60.85 27.31 65.04"/><path class="cls-10" d="M27.31,65.04v9.89s7.7-4.41,7.7-4.41v-9.93l-7.7,4.44Z"/><polygon class="cls-8" points="23.99 63.15 23.99 73.04 23.02 72.49 23.02 62.59 23.99 63.15"/><polygon class="cls-11" points="31.71 58.69 29.02 60.25 28.05 60.8 24 63.14 23.98 63.15 23.02 62.59 23.04 62.58 27.09 60.25 28.05 59.69 30.75 58.13 31.71 58.69"/><path class="cls-20" d="M23.63,63.35l-.96-.55-3-1.73-7.7,4.45,2.99,1.72.97.56,3.31,1.91,7.69-4.45h0s-3.3-1.91-3.3-1.91Z"/><path class="cls-3" d="M19.68,61.22l-7.43,4.3,7,3.99,7.43-4.25-6.99-4.04Z"/><polygon class="cls-13" points="19.24 69.71 19.23 79.6 15.91 77.7 14.94 77.16 11.97 75.46 11.97 65.52 19.24 69.71"/><path class="cls-10" d="M19.24,69.71v9.89s7.7-4.41,7.7-4.41v-9.93l-7.7,4.45Z"/><polygon class="cls-8" points="15.91 67.82 15.91 77.7 14.94 77.16 14.94 67.26 15.91 67.82"/><polygon class="cls-11" points="23.63 63.35 20.94 64.91 19.98 65.47 15.93 67.8 15.9 67.82 14.94 67.26 14.96 67.24 19.01 64.91 19.98 64.35 22.67 62.8 23.63 63.35"/><polygon class="cls-18" points="25.73 69.41 22.2 71.44 22.2 68.41 25.73 66.37 25.73 69.41"/><polygon class="cls-5" points="25.39 67.28 22.54 68.93 22.54 68.59 25.39 66.94 25.39 67.28"/><polygon class="cls-14" points="25.39 67.89 22.54 69.54 22.54 69.39 25.39 67.74 25.39 67.89"/><polygon class="cls-14" points="25.39 68.29 22.54 69.94 22.54 69.79 25.39 68.14 25.39 68.29"/><polygon class="cls-14" points="25.39 68.72 22.54 70.37 22.54 70.22 25.39 68.57 25.39 68.72"/><polygon class="cls-14" points="25.39 69.12 22.54 70.76 22.54 70.62 25.39 68.97 25.39 69.12"/><polygon class="cls-18" points="34.25 64.86 30.72 66.89 30.72 63.87 34.25 61.83 34.25 64.86"/><polygon class="cls-5" points="33.91 62.74 31.06 64.39 31.06 64.05 33.91 62.4 33.91 62.74"/><polygon class="cls-14" points="33.91 63.35 31.06 65 31.06 64.85 33.91 63.2 33.91 63.35"/><polygon class="cls-14" points="33.91 63.75 31.06 65.39 31.06 65.25 33.91 63.6 33.91 63.75"/><polygon class="cls-14" points="33.91 64.17 31.06 65.82 31.06 65.67 33.91 64.02 33.91 64.17"/><polygon class="cls-14" points="33.91 64.57 31.06 66.22 31.06 66.07 33.91 64.42 33.91 64.57"/><g class="cls-2"><polygon class="cls-17" points="8.91 56.51 17.9 61.72 26.81 56.58 17.82 51.38 8.91 56.51"/></g><path class="cls-20" d="M24.23,44.33l-.96-.55-3-1.73-7.7,4.45,2.99,1.73.96.56,3.31,1.9,7.69-4.44h0s-3.3-1.91-3.3-1.91Z"/><path class="cls-3" d="M20.27,42.2l-7.43,4.29,6.99,3.99,7.43-4.25-6.99-4.04Z"/><polygon class="cls-13" points="19.83 50.68 19.82 60.58 16.5 58.68 15.54 58.13 12.57 56.44 12.57 46.5 19.83 50.68"/><path class="cls-10" d="M19.83,50.68v9.89s7.7-4.41,7.7-4.41v-9.93l-7.7,4.44Z"/><polygon class="cls-8" points="16.5 48.79 16.5 58.68 15.54 58.13 15.54 48.24 16.5 48.79"/><polygon class="cls-11" points="24.23 44.33 21.54 45.89 20.57 46.44 16.53 48.78 16.5 48.79 15.53 48.24 15.56 48.22 19.61 45.89 20.57 45.33 23.27 43.78 24.23 44.33"/><path class="cls-20" d="M16.15,49l-.96-.55-3-1.73-7.7,4.45,2.99,1.72.96.56,3.31,1.91,7.69-4.44h0s-3.3-1.91-3.3-1.91Z"/><path class="cls-3" d="M12.19,46.87l-7.43,4.3,6.99,3.99,7.43-4.25-6.99-4.04Z"/><polygon class="cls-13" points="11.75 55.35 11.75 65.24 8.43 63.35 7.46 62.8 4.49 61.1 4.49 51.16 11.75 55.35"/><path class="cls-10" d="M11.75,55.35v9.89s7.7-4.41,7.7-4.41v-9.93l-7.7,4.44Z"/><polygon class="cls-8" points="8.43 53.46 8.43 63.35 7.46 62.8 7.46 52.9 8.43 53.46"/><polygon class="cls-11" points="16.15 49 13.46 50.55 12.49 51.11 8.45 53.44 8.42 53.46 7.46 52.9 7.49 52.89 11.53 50.55 12.49 49.99 15.19 48.44 16.15 49"/><g class="cls-2"><polygon class="cls-17" points="16.39 60.9 25.38 66.1 34.28 60.97 25.3 55.77 16.39 60.9"/></g><path class="cls-20" d="M31.71,48.72l-.96-.55-2.99-1.73-7.7,4.45,2.99,1.72.96.56,3.31,1.91,7.69-4.45h0s-3.3-1.91-3.3-1.91Z"/><path class="cls-3" d="M27.75,46.59l-7.43,4.29,6.99,3.99,7.43-4.25-6.99-4.04Z"/><polygon class="cls-13" points="27.31 55.08 27.3 64.97 23.99 63.07 23.02 62.52 20.05 60.83 20.05 50.89 27.31 55.08"/><path class="cls-10" d="M27.31,55.08v9.89s7.7-4.41,7.7-4.41v-9.93l-7.7,4.45Z"/><polygon class="cls-8" points="23.99 53.18 23.99 63.07 23.02 62.52 23.02 52.63 23.99 53.18"/><polygon class="cls-11" points="31.71 48.72 29.02 50.28 28.05 50.83 24 53.17 23.98 53.19 23.02 52.63 23.04 52.61 27.09 50.28 28.05 49.72 30.75 48.17 31.71 48.72"/><path class="cls-20" d="M23.63,53.38l-.96-.55-3-1.73-7.7,4.45,2.99,1.73.97.56,3.31,1.91,7.69-4.45h0s-3.3-1.91-3.3-1.91Z"/><path class="cls-3" d="M19.68,51.26l-7.43,4.29,7,3.99,7.43-4.25-6.99-4.04Z"/><polygon class="cls-13" points="19.24 59.74 19.23 69.63 15.91 67.74 14.94 67.19 11.97 65.49 11.97 55.55 19.24 59.74"/><path class="cls-10" d="M19.24,59.74v9.89s7.7-4.41,7.7-4.41v-9.93l-7.7,4.44Z"/><polygon class="cls-8" points="15.91 57.85 15.91 67.74 14.94 67.19 14.94 57.29 15.91 57.85"/><polygon class="cls-11" points="23.63 53.38 20.94 54.94 19.98 55.5 15.93 57.83 15.9 57.85 14.94 57.29 14.96 57.28 19.01 54.94 19.98 54.38 22.67 52.83 23.63 53.38"/><polygon class="cls-18" points="25.73 59.44 22.2 61.47 22.2 58.44 25.73 56.41 25.73 59.44"/><polygon class="cls-5" points="25.39 57.32 22.54 58.97 22.54 58.62 25.39 56.98 25.39 57.32"/><polygon class="cls-14" points="25.39 57.92 22.54 59.57 22.54 59.42 25.39 57.78 25.39 57.92"/><polygon class="cls-14" points="25.39 58.33 22.54 59.97 22.54 59.82 25.39 58.17 25.39 58.33"/><polygon class="cls-14" points="25.39 58.75 22.54 60.4 22.54 60.25 25.39 58.6 25.39 58.75"/><polygon class="cls-14" points="25.39 59.15 22.54 60.8 22.54 60.65 25.39 59 25.39 59.15"/><polygon class="cls-18" points="34.25 54.89 30.72 56.93 30.72 53.9 34.25 51.86 34.25 54.89"/><polygon class="cls-5" points="33.91 52.77 31.06 54.42 31.06 54.08 33.91 52.43 33.91 52.77"/><polygon class="cls-14" points="33.91 53.38 31.06 55.03 31.06 54.88 33.91 53.23 33.91 53.38"/><polygon class="cls-14" points="33.91 53.78 31.06 55.43 31.06 55.28 33.91 53.63 33.91 53.78"/><polygon class="cls-14" points="33.91 54.21 31.06 55.86 31.06 55.71 33.91 54.06 33.91 54.21"/><polygon class="cls-14" points="33.91 54.61 31.06 56.25 31.06 56.1 33.91 54.46 33.91 54.61"/><g class="cls-21"><polygon class="cls-16" points="19.26 62.01 4.44 53.45 4.44 68.39 19.26 76.95 19.26 62.01"/></g><g class="cls-22"><polygon class="cls-16" points="19.26 62.01 35.01 52.93 35.01 67.87 19.26 76.95 19.26 62.01"/></g><g class="cls-2"><polyline class="cls-19" points=".83 51.27 0 50.8 .83 50.32 3.21 48.94 4.55 48.17 18.56 40.09 36.57 50.48 18.01 61.2 17.21 60.74 15.87 59.97 13.48 58.58 10.85 57.06 9.51 56.3 7.12 54.91 4.55 53.43 3.21 52.65"/></g><polygon class="cls-7" points="36.57 50.3 18.92 60.49 1.8 50.61 1.8 50.21 19.44 40.42 36.57 49.9 36.57 50.3"/><polygon class="cls-15" points="36.57 49.9 18.92 60.09 18.16 59.66 16.89 58.92 14.62 57.6 12.11 56.16 10.85 55.43 8.57 54.11 6.13 52.7 4.85 51.96 2.58 50.65 1.8 50.2 2.58 49.75 4.85 48.44 6.13 47.7 19.45 40.02 36.57 49.9"/><polygon class="cls-12" points="21.61 41.27 3.97 51.46 3.92 51.43 21.56 41.24 21.61 41.27"/><polygon class="cls-12" points="23.75 42.51 6.11 52.69 6.06 52.66 23.7 42.48 23.75 42.51"/><polygon class="cls-12" points="25.89 43.74 8.25 53.93 8.2 53.9 25.84 43.71 25.89 43.74"/><polygon class="cls-12" points="28.03 44.98 10.39 55.17 10.34 55.13 27.98 44.95 28.03 44.98"/><polygon class="cls-12" points="30.17 46.21 12.53 56.4 12.48 56.37 30.12 46.18 30.17 46.21"/><polygon class="cls-12" points="32.31 47.45 14.67 57.64 14.62 57.61 32.26 47.42 32.31 47.45"/><polygon class="cls-12" points="34.45 48.69 16.81 58.87 16.76 58.84 34.4 48.65 34.45 48.69"/><path class="cls-4" d="M5.46,47.74v4.58l-2.27-1.31v-2.07c.74-.43,1.5-.81,2.27-1.2Z"/><polygon class="cls-7" points="6.73 47.71 6.73 51.57 5.46 52.32 5.46 47.71 6.73 47.71"/><polygon class="cls-4" points="11.44 51.25 11.44 55.79 9.17 54.47 9.17 51.25 11.44 51.25"/><polygon class="cls-7" points="12.71 51.25 12.71 55.03 11.44 55.79 11.44 51.25 12.71 51.25"/><polygon class="cls-4" points="26.94 51.05 26.94 55.53 24.66 54.21 24.66 51.05 26.94 51.05"/><polygon class="cls-7" points="28.2 51.05 28.2 54.77 26.94 55.53 26.94 51.05 28.2 51.05"/><polygon class="cls-4" points="18.91 55.71 18.91 60.19 16.63 58.87 16.63 55.71 18.91 55.71"/><polygon class="cls-7" points="20.17 55.71 20.17 59.43 18.91 60.19 18.91 55.71 20.17 55.71"/><polygon class="cls-4" points="32.31 48.43 32.31 49.74 34.59 51.06 34.59 48.43 32.31 48.43"/><polygon class="cls-7" points="34.59 48.43 34.59 51.06 35.85 50.3 35.85 48.43 34.59 48.43"/><polygon class="cls-9" points="36.57 48.57 18.92 58.75 1.8 48.87 1.8 48.49 19.44 38.68 36.57 48.19 36.57 48.57"/><polygon class="cls-12" points="36.57 48.19 18.92 58.38 1.8 48.49 19.44 38.31 36.57 48.19"/><polygon class="cls-6" points="21.61 39.56 3.97 49.75 3.92 49.72 21.56 39.53 21.61 39.56"/><polygon class="cls-6" points="23.75 40.8 6.11 50.98 6.06 50.95 23.7 40.77 23.75 40.8"/><polygon class="cls-6" points="25.89 42.03 8.25 52.22 8.2 52.19 25.84 42 25.89 42.03"/><polygon class="cls-6" points="28.03 43.27 10.39 53.45 10.34 53.42 27.98 43.24 28.03 43.27"/><polygon class="cls-6" points="30.17 44.5 12.53 54.69 12.48 54.66 30.12 44.47 30.17 44.5"/><polygon class="cls-6" points="32.31 45.74 14.67 55.92 14.62 55.89 32.26 45.71 32.31 45.74"/><polygon class="cls-6" points="34.45 46.97 16.81 57.16 16.76 57.13 34.4 46.94 34.45 46.97"/><polygon class="cls-4" points="18.92 60.49 18.91 60.08 1.8 50.2 1.8 50.61 18.92 60.49"/><polygon class="cls-1" points="20.06 48.51 20.11 48.48 11.13 43.28 2.22 48.42 9.75 52.78 9.7 52.81 18.69 58.01 34.78 48.38 20.06 48.51"/><g class="cls-2"><polygon class="cls-17" points="8.69 44.34 17.67 49.54 26.57 44.4 17.59 39.2 8.69 44.34"/></g><path class="cls-20" d="M24,32.16l-.96-.55-2.99-1.73-7.7,4.45,2.99,1.73.97.56,3.3,1.91,7.69-4.45h0s-3.3-1.91-3.3-1.91Z"/><path class="cls-3" d="M20.04,30.03l-7.43,4.29,6.99,3.99,7.43-4.25-6.98-4.03Z"/><polygon class="cls-13" points="19.6 38.51 19.59 48.4 16.28 46.51 15.31 45.96 12.34 44.26 12.34 34.32 19.6 38.51"/><path class="cls-10" d="M19.6,38.51v9.89s7.7-4.41,7.7-4.41v-9.93l-7.7,4.45Z"/><polygon class="cls-8" points="16.28 36.62 16.28 46.51 15.31 45.96 15.31 36.06 16.28 36.62"/><polygon class="cls-11" points="24 32.16 21.3 33.71 20.34 34.27 16.3 36.6 16.27 36.62 15.31 36.06 15.33 36.05 19.38 33.71 20.34 33.15 23.04 31.6 24 32.16"/><path class="cls-20" d="M15.92,36.82l-.96-.55-2.99-1.73-7.7,4.45,3,1.73.96.55,3.31,1.91,7.69-4.45h0s-3.3-1.91-3.3-1.91Z"/><path class="cls-3" d="M11.97,34.69l-7.43,4.3,6.99,3.99,7.43-4.25-6.98-4.04Z"/><polygon class="cls-13" points="11.53 43.18 11.52 53.07 8.2 51.17 7.24 50.62 4.26 48.93 4.26 38.99 11.53 43.18"/><path class="cls-10" d="M11.53,43.18v9.89s7.7-4.41,7.7-4.41v-9.93l-7.7,4.45Z"/><polygon class="cls-8" points="8.2 41.29 8.2 51.17 7.24 50.62 7.24 40.73 8.2 41.29"/><polygon class="cls-11" points="15.92 36.82 13.23 38.38 12.27 38.94 8.22 41.27 8.19 41.29 7.23 40.73 7.26 40.71 11.3 38.38 12.27 37.82 14.96 36.27 15.92 36.82"/><g class="cls-2"><polygon class="cls-17" points="16.16 48.73 25.15 53.93 34.06 48.79 25.07 43.59 16.16 48.73"/></g><path class="cls-20" d="M31.48,36.54l-.96-.55-2.99-1.73-7.7,4.45,2.99,1.73.96.55,3.3,1.91,7.69-4.44h0s-3.3-1.91-3.3-1.91Z"/><path class="cls-3" d="M27.52,34.42l-7.43,4.29,6.99,3.99,7.43-4.25-6.99-4.04Z"/><polygon class="cls-13" points="27.08 42.9 27.07 52.79 23.75 50.9 22.79 50.35 19.82 48.65 19.82 38.71 27.08 42.9"/><path class="cls-10" d="M27.08,42.9v9.89s7.7-4.41,7.7-4.41v-9.93l-7.7,4.44Z"/><polygon class="cls-8" points="23.75 41.01 23.75 50.9 22.79 50.35 22.79 40.46 23.75 41.01"/><polygon class="cls-11" points="31.48 36.54 28.79 38.1 27.83 38.66 23.78 40.99 23.75 41.01 22.79 40.46 22.81 40.44 26.86 38.1 27.83 37.54 30.52 35.99 31.48 36.54"/><path class="cls-20" d="M23.4,41.21l-.96-.55-2.99-1.73-7.7,4.45,2.99,1.72.96.55,3.3,1.91,7.69-4.45h0s-3.3-1.91-3.3-1.91Z"/><path class="cls-3" d="M19.45,39.08l-7.44,4.3,6.99,3.99,7.43-4.25-6.98-4.04Z"/><polygon class="cls-13" points="19.01 47.57 19 57.46 15.68 55.56 14.72 55.01 11.74 53.32 11.74 43.38 19.01 47.57"/><path class="cls-10" d="M19.01,47.57v9.89s7.7-4.41,7.7-4.41v-9.93l-7.7,4.44Z"/><polygon class="cls-8" points="15.68 45.67 15.68 55.56 14.72 55.01 14.72 45.12 15.68 45.67"/><polygon class="cls-11" points="23.4 41.21 20.71 42.77 19.75 43.33 15.7 45.66 15.67 45.68 14.71 45.12 14.74 45.1 18.78 42.77 19.75 42.21 22.44 40.66 23.4 41.21"/><polygon class="cls-18" points="25.5 47.26 21.98 49.3 21.98 46.27 25.5 44.23 25.5 47.26"/><polygon class="cls-5" points="25.17 45.14 22.31 46.79 22.31 46.45 25.17 44.8 25.17 45.14"/><polygon class="cls-14" points="25.17 45.75 22.31 47.4 22.31 47.25 25.17 45.6 25.17 45.75"/><polygon class="cls-14" points="25.17 46.15 22.31 47.8 22.31 47.65 25.17 46 25.17 46.15"/><polygon class="cls-14" points="25.17 46.58 22.31 48.23 22.31 48.08 25.17 46.43 25.17 46.58"/><polygon class="cls-14" points="25.17 46.97 22.31 48.62 22.31 48.47 25.17 46.83 25.17 46.97"/><polygon class="cls-18" points="34.02 42.72 30.49 44.75 30.49 41.72 34.02 39.69 34.02 42.72"/><polygon class="cls-5" points="33.68 40.59 30.83 42.25 30.83 41.91 33.68 40.26 33.68 40.59"/><polygon class="cls-14" points="33.68 41.21 30.83 42.86 30.83 42.71 33.68 41.05 33.68 41.21"/><polygon class="cls-14" points="33.68 41.6 30.83 43.25 30.83 43.1 33.68 41.46 33.68 41.6"/><polygon class="cls-14" points="33.68 42.03 30.83 43.68 30.83 43.53 33.68 41.88 33.68 42.03"/><polygon class="cls-14" points="33.68 42.43 30.83 44.08 30.83 43.93 33.68 42.28 33.68 42.43"/><g class="cls-2"><polygon class="cls-17" points="8.69 34.37 17.67 39.57 26.57 34.44 17.59 29.23 8.69 34.37"/></g><path class="cls-20" d="M24,22.19l-.96-.55-2.99-1.73-7.7,4.45,2.99,1.73.97.55,3.3,1.91,7.69-4.45h0s-3.3-1.91-3.3-1.91Z"/><path class="cls-3" d="M20.04,20.06l-7.43,4.29,6.99,3.99,7.43-4.25-6.98-4.04Z"/><polygon class="cls-13" points="19.6 28.54 19.59 38.44 16.28 36.54 15.31 35.99 12.34 34.29 12.34 24.35 19.6 28.54"/><path class="cls-10" d="M19.6,28.54v9.89s7.7-4.41,7.7-4.41v-9.93l-7.7,4.45Z"/><polygon class="cls-8" points="16.28 26.65 16.28 36.54 15.31 35.99 15.31 26.1 16.28 26.65"/><polygon class="cls-11" points="24 22.19 21.3 23.75 20.34 24.3 16.3 26.63 16.27 26.65 15.31 26.1 15.33 26.08 19.38 23.75 20.34 23.19 23.04 21.63 24 22.19"/><path class="cls-20" d="M15.92,26.85l-.96-.55-2.99-1.73-7.7,4.45,3,1.73.96.56,3.31,1.91,7.69-4.45h0s-3.3-1.91-3.3-1.91Z"/><path class="cls-3" d="M11.97,24.72l-7.43,4.29,6.99,3.99,7.43-4.25-6.98-4.04Z"/><polygon class="cls-13" points="11.53 33.21 11.52 43.1 8.2 41.21 7.24 40.66 4.26 38.96 4.26 29.02 11.53 33.21"/><path class="cls-10" d="M11.53,33.21v9.89s7.7-4.41,7.7-4.41v-9.93l-7.7,4.45Z"/><polygon class="cls-8" points="8.2 31.31 8.2 41.21 7.24 40.66 7.24 30.76 8.2 31.31"/><polygon class="cls-11" points="15.92 26.85 13.23 28.41 12.27 28.97 8.22 31.3 8.19 31.32 7.23 30.76 7.26 30.75 11.3 28.41 12.27 27.85 14.96 26.3 15.92 26.85"/><g class="cls-2"><polygon class="cls-17" points="16.16 38.76 25.15 43.96 34.06 38.83 25.07 33.62 16.16 38.76"/></g><path class="cls-20" d="M31.48,26.58l-.96-.55-2.99-1.73-7.7,4.45,2.99,1.73.96.56,3.3,1.91,7.69-4.45h0s-3.3-1.91-3.3-1.91Z"/><path class="cls-3" d="M27.52,24.45l-7.43,4.29,6.99,3.99,7.43-4.25-6.99-4.03Z"/><polygon class="cls-13" points="27.08 32.93 27.07 42.83 23.75 40.93 22.79 40.38 19.82 38.69 19.82 28.74 27.08 32.93"/><path class="cls-10" d="M27.08,32.93v9.89s7.7-4.41,7.7-4.41v-9.93l-7.7,4.44Z"/><polygon class="cls-8" points="23.75 31.04 23.75 40.93 22.79 40.38 22.79 30.49 23.75 31.04"/><polygon class="cls-11" points="31.48 26.58 28.79 28.14 27.83 28.7 23.78 31.03 23.75 31.04 22.79 30.49 22.81 30.47 26.86 28.14 27.83 27.58 30.52 26.03 31.48 26.58"/><path class="cls-20" d="M23.4,31.24l-.96-.55-2.99-1.73-7.7,4.45,2.99,1.73.96.55,3.3,1.91,7.69-4.45h0s-3.3-1.91-3.3-1.91Z"/><path class="cls-3" d="M19.45,29.12l-7.44,4.29,6.99,3.99,7.43-4.25-6.98-4.03Z"/><polygon class="cls-13" points="19.01 37.6 19 47.49 15.68 45.6 14.72 45.05 11.74 43.35 11.74 33.41 19.01 37.6"/><path class="cls-10" d="M19.01,37.6v9.89s7.7-4.41,7.7-4.41v-9.93l-7.7,4.45Z"/><polygon class="cls-8" points="15.68 35.71 15.68 45.6 14.72 45.05 14.72 35.15 15.68 35.71"/><polygon class="cls-11" points="23.4 31.24 20.71 32.8 19.75 33.36 15.7 35.69 15.67 35.71 14.71 35.15 14.74 35.14 18.78 32.8 19.75 32.24 22.44 30.69 23.4 31.24"/><polygon class="cls-18" points="25.5 37.3 21.98 39.33 21.98 36.3 25.5 34.26 25.5 37.3"/><polygon class="cls-5" points="25.17 35.17 22.31 36.82 22.31 36.48 25.17 34.84 25.17 35.17"/><polygon class="cls-14" points="25.17 35.78 22.31 37.43 22.31 37.28 25.17 35.63 25.17 35.78"/><polygon class="cls-14" points="25.17 36.18 22.31 37.83 22.31 37.68 25.17 36.03 25.17 36.18"/><polygon class="cls-14" points="25.17 36.61 22.31 38.26 22.31 38.11 25.17 36.46 25.17 36.61"/><polygon class="cls-14" points="25.17 37.01 22.31 38.66 22.31 38.51 25.17 36.86 25.17 37.01"/><polygon class="cls-18" points="34.02 32.75 30.49 34.79 30.49 31.76 34.02 29.72 34.02 32.75"/><polygon class="cls-5" points="33.68 30.63 30.83 32.28 30.83 31.94 33.68 30.29 33.68 30.63"/><polygon class="cls-14" points="33.68 31.24 30.83 32.89 30.83 32.74 33.68 31.09 33.68 31.24"/><polygon class="cls-14" points="33.68 31.64 30.83 33.29 30.83 33.13 33.68 31.49 33.68 31.64"/><polygon class="cls-14" points="33.68 32.07 30.83 33.71 30.83 33.56 33.68 31.92 33.68 32.07"/><polygon class="cls-14" points="33.68 32.46 30.83 34.11 30.83 33.96 33.68 32.31 33.68 32.46"/><g class="cls-21"><polygon class="cls-16" points="19.03 39.87 4.21 31.31 4.21 46.25 19.03 54.81 19.03 39.87"/></g><g class="cls-22"><polygon class="cls-16" points="19.03 39.87 34.78 30.79 34.78 45.73 19.03 54.81 19.03 39.87"/></g><g class="cls-2"><polygon class="cls-19" points="36.37 30.38 17.81 41.11 17.34 40.84 16.8 40.52 16.01 40.06 13.62 38.68 10.98 37.16 9.65 36.39 7.25 35.01 4.69 33.52 3.35 32.74 2.88 32.47 1.87 31.89 20.42 21.18 21.43 21.76 35.36 29.8 36.37 30.38"/></g><polygon class="cls-7" points="36.7 30.4 19.06 40.59 1.94 30.7 1.94 30.3 19.58 20.51 36.7 30 36.7 30.4"/><polygon class="cls-15" points="36.7 30 19.06 40.19 18.29 39.75 17.03 39.02 14.75 37.7 12.25 36.25 10.98 35.53 8.7 34.21 6.26 32.79 4.99 32.06 2.72 30.75 1.93 30.29 2.72 29.84 4.99 28.53 6.26 27.79 19.58 20.11 36.7 30"/><polygon class="cls-12" points="21.75 21.37 4.11 31.55 4.06 31.52 21.7 21.34 21.75 21.37"/><polygon class="cls-12" points="23.89 22.6 6.25 32.79 6.19 32.76 23.84 22.57 23.89 22.6"/><polygon class="cls-12" points="26.03 23.84 8.39 34.02 8.33 33.99 25.98 23.81 26.03 23.84"/><polygon class="cls-12" points="28.17 25.07 10.52 35.26 10.47 35.23 28.11 25.04 28.17 25.07"/><polygon class="cls-12" points="30.31 26.31 12.67 36.49 12.61 36.47 30.25 26.28 30.31 26.31"/><polygon class="cls-12" points="32.44 27.54 14.8 37.73 14.75 37.7 32.4 27.51 32.44 27.54"/><polygon class="cls-12" points="34.59 28.78 16.94 38.96 16.89 38.94 34.53 28.75 34.59 28.78"/><path class="cls-4" d="M5.59,27.84v4.58l-2.27-1.31v-2.07c.74-.43,1.51-.81,2.27-1.2Z"/><polygon class="cls-7" points="6.86 27.8 6.86 31.66 5.59 32.42 5.59 27.8 6.86 27.8"/><polygon class="cls-4" points="11.58 31.34 11.58 35.88 9.3 34.56 9.3 31.34 11.58 31.34"/><polygon class="cls-7" points="12.85 31.34 12.85 35.12 11.58 35.88 11.58 31.34 12.85 31.34"/><polygon class="cls-4" points="27.07 31.14 27.07 35.62 24.79 34.3 24.79 31.14 27.07 31.14"/><polygon class="cls-7" points="28.34 31.14 28.34 34.86 27.07 35.62 27.07 31.14 28.34 31.14"/><polygon class="cls-4" points="19.04 35.8 19.04 40.28 16.76 38.96 16.76 35.8 19.04 35.8"/><polygon class="cls-7" points="20.31 35.8 20.31 39.53 19.04 40.28 19.04 35.8 20.31 35.8"/><polygon class="cls-4" points="32.44 28.53 32.44 29.84 34.72 31.15 34.72 28.53 32.44 28.53"/><polygon class="cls-7" points="34.72 28.53 34.72 31.15 35.99 30.4 35.99 28.53 34.72 28.53"/><polygon class="cls-9" points="36.7 28.66 19.06 38.85 1.94 28.96 1.94 28.59 19.58 18.78 36.7 28.29 36.7 28.66"/><polygon class="cls-12" points="36.7 28.29 19.06 38.47 1.94 28.59 19.58 18.4 36.7 28.29"/><polygon class="cls-6" points="21.75 19.65 4.11 29.84 4.06 29.81 21.7 19.62 21.75 19.65"/><polygon class="cls-6" points="23.89 20.89 6.25 31.07 6.19 31.05 23.84 20.86 23.89 20.89"/><polygon class="cls-6" points="26.03 22.12 8.39 32.31 8.33 32.28 25.98 22.1 26.03 22.12"/><polygon class="cls-6" points="28.17 23.36 10.52 33.55 10.47 33.52 28.11 23.33 28.17 23.36"/><polygon class="cls-6" points="30.31 24.59 12.67 34.78 12.61 34.75 30.25 24.57 30.31 24.59"/><polygon class="cls-6" points="32.44 25.83 14.8 36.02 14.75 35.99 32.4 25.8 32.44 25.83"/><polygon class="cls-6" points="34.59 27.07 16.94 37.25 16.89 37.22 34.53 27.04 34.59 27.07"/><polygon class="cls-4" points="19.06 40.59 19.04 40.18 1.93 30.29 1.94 30.7 19.06 40.59"/><polygon class="cls-1" points="20.19 28.61 20.24 28.58 11.26 23.38 2.35 28.51 9.89 32.87 9.83 32.9 18.82 38.1 34.92 28.48 20.19 28.61"/><g class="cls-2"><polygon class="cls-17" points="8.82 24.43 17.81 29.63 26.71 24.5 17.72 19.29 8.82 24.43"/></g><path class="cls-20" d="M24.13,12.25l-.96-.55-3-1.73-7.7,4.45,2.99,1.73.96.55,3.31,1.91,7.69-4.45h0s-3.3-1.91-3.3-1.91Z"/><path class="cls-3" d="M20.18,10.12l-7.43,4.29,6.99,3.99,7.43-4.25-6.99-4.04Z"/><polygon class="cls-13" points="19.74 18.61 19.73 28.5 16.41 26.6 15.45 26.05 12.47 24.36 12.47 14.41 19.74 18.61"/><path class="cls-10" d="M19.73,18.61v9.89s7.7-4.41,7.7-4.41v-9.93l-7.7,4.45Z"/><polygon class="cls-8" points="16.41 16.71 16.41 26.6 15.45 26.05 15.45 16.16 16.41 16.71"/><polygon class="cls-11" points="24.13 12.25 21.44 13.81 20.48 14.36 16.43 16.7 16.4 16.71 15.44 16.16 15.47 16.14 19.52 13.81 20.48 13.25 23.17 11.7 24.13 12.25"/><path class="cls-20" d="M16.06,16.91l-.96-.55-3-1.73-7.7,4.45,2.99,1.73.96.55,3.31,1.91,7.69-4.45h0s-3.3-1.91-3.3-1.91Z"/><path class="cls-3" d="M12.1,14.78l-7.43,4.3,6.99,3.99,7.43-4.25-6.99-4.04Z"/><polygon class="cls-13" points="11.66 23.27 11.65 33.16 8.33 31.27 7.37 30.72 4.4 29.02 4.4 19.08 11.66 23.27"/><path class="cls-10" d="M11.66,23.27v9.89s7.7-4.41,7.7-4.41v-9.93l-7.7,4.45Z"/><polygon class="cls-8" points="8.33 21.38 8.33 31.27 7.37 30.72 7.37 20.82 8.33 21.38"/><polygon class="cls-11" points="16.06 16.91 13.37 18.47 12.4 19.03 8.35 21.36 8.33 21.38 7.36 20.82 7.39 20.81 11.44 18.47 12.4 17.91 15.1 16.36 16.06 16.91"/><g class="cls-2"><polygon class="cls-17" points="16.3 28.82 25.29 34.02 34.19 28.89 25.2 23.69 16.3 28.82"/></g><path class="cls-20" d="M31.61,16.64l-.96-.55-2.99-1.73-7.7,4.45,2.99,1.73.96.55,3.31,1.91,7.69-4.45h0s-3.3-1.91-3.3-1.91Z"/><path class="cls-3" d="M27.66,14.51l-7.43,4.29,6.99,3.99,7.43-4.25-6.99-4.04Z"/><polygon class="cls-13" points="27.22 22.99 27.21 32.89 23.89 30.99 22.93 30.44 19.96 28.75 19.96 18.81 27.22 22.99"/><path class="cls-10" d="M27.22,22.99v9.89s7.7-4.41,7.7-4.41v-9.93l-7.7,4.44Z"/><polygon class="cls-8" points="23.89 21.1 23.89 30.99 22.93 30.44 22.93 20.55 23.89 21.1"/><polygon class="cls-11" points="31.61 16.64 28.92 18.2 27.96 18.76 23.91 21.09 23.89 21.1 22.92 20.55 22.95 20.53 27 18.2 27.96 17.64 30.65 16.09 31.61 16.64"/><path class="cls-20" d="M23.54,21.3l-.96-.55-3-1.73-7.7,4.45,2.99,1.72.97.56,3.31,1.91,7.69-4.45h0s-3.3-1.91-3.3-1.91Z"/><path class="cls-3" d="M19.58,19.18l-7.43,4.3,7,3.99,7.43-4.25-6.99-4.04Z"/><polygon class="cls-13" points="19.14 27.66 19.13 37.55 15.81 35.66 14.85 35.11 11.88 33.41 11.88 23.47 19.14 27.66"/><path class="cls-10" d="M19.14,27.66v9.89s7.7-4.41,7.7-4.41v-9.93l-7.7,4.45Z"/><polygon class="cls-8" points="15.81 25.77 15.81 35.66 14.85 35.11 14.85 25.21 15.81 25.77"/><polygon class="cls-11" points="23.54 21.3 20.85 22.86 19.88 23.42 15.84 25.75 15.81 25.77 14.85 25.21 14.87 25.2 18.92 22.86 19.88 22.3 22.58 20.75 23.54 21.3"/><polygon class="cls-18" points="25.64 27.36 22.11 29.39 22.11 26.36 25.64 24.33 25.64 27.36"/><polygon class="cls-5" points="25.3 25.23 22.44 26.88 22.44 26.54 25.3 24.9 25.3 25.23"/><polygon class="cls-14" points="25.3 25.84 22.44 27.49 22.44 27.34 25.3 25.7 25.3 25.84"/><polygon class="cls-14" points="25.3 26.24 22.44 27.89 22.44 27.74 25.3 26.09 25.3 26.24"/><polygon class="cls-14" points="25.3 26.67 22.44 28.32 22.44 28.17 25.3 26.52 25.3 26.67"/><polygon class="cls-14" points="25.3 27.07 22.44 28.72 22.44 28.57 25.3 26.92 25.3 27.07"/><polygon class="cls-18" points="34.15 22.81 30.63 24.85 30.63 21.82 34.15 19.78 34.15 22.81"/><polygon class="cls-5" points="33.82 20.69 30.96 22.34 30.96 22 33.82 20.35 33.82 20.69"/><polygon class="cls-14" points="33.82 21.3 30.96 22.95 30.96 22.8 33.82 21.15 33.82 21.3"/><polygon class="cls-14" points="33.82 21.7 30.96 23.35 30.96 23.2 33.82 21.55 33.82 21.7"/><polygon class="cls-14" points="33.82 22.13 30.96 23.78 30.96 23.63 33.82 21.98 33.82 22.13"/><polygon class="cls-14" points="33.82 22.52 30.96 24.17 30.96 24.02 33.82 22.38 33.82 22.52"/><g class="cls-2"><polygon class="cls-17" points="8.82 14.46 17.81 19.67 26.71 14.53 17.72 9.33 8.82 14.46"/></g><path class="cls-20" d="M24.13,2.28l-.96-.55-3-1.73-7.7,4.45,2.99,1.73.96.56,3.31,1.9,7.69-4.44h0s-3.3-1.91-3.3-1.91Z"/><path class="cls-3" d="M20.18.15l-7.43,4.29,6.99,3.99,7.43-4.25L20.18.15Z"/><polygon class="cls-13" points="19.74 8.64 19.73 18.53 16.41 16.63 15.45 16.09 12.47 14.39 12.47 4.45 19.74 8.64"/><path class="cls-10" d="M19.73,8.64v9.89s7.7-4.41,7.7-4.41V4.19l-7.7,4.44Z"/><polygon class="cls-8" points="16.41 6.75 16.41 16.63 15.45 16.09 15.45 6.19 16.41 6.75"/><polygon class="cls-11" points="24.13 2.28 21.44 3.84 20.48 4.4 16.43 6.73 16.4 6.75 15.44 6.19 15.47 6.18 19.52 3.84 20.48 3.28 23.17 1.73 24.13 2.28"/><path class="cls-20" d="M16.06,6.95l-.96-.55-3-1.73-7.7,4.45,2.99,1.72.96.56,3.31,1.91,7.69-4.44h0s-3.3-1.91-3.3-1.91Z"/><path class="cls-3" d="M12.1,4.82l-7.43,4.3,6.99,3.99,7.43-4.25-6.99-4.04Z"/><polygon class="cls-13" points="11.66 13.3 11.65 23.19 8.33 21.3 7.37 20.75 4.4 19.05 4.4 9.11 11.66 13.3"/><path class="cls-10" d="M11.66,13.3v9.89s7.7-4.41,7.7-4.41v-9.93l-7.7,4.44Z"/><polygon class="cls-8" points="8.33 11.41 8.33 21.3 7.37 20.75 7.37 10.86 8.33 11.41"/><polygon class="cls-11" points="16.06 6.95 13.37 8.5 12.4 9.06 8.35 11.39 8.33 11.41 7.36 10.86 7.39 10.84 11.44 8.5 12.4 7.95 15.1 6.39 16.06 6.95"/><g class="cls-2"><polygon class="cls-17" points="16.3 18.86 25.29 24.05 34.19 18.92 25.2 13.72 16.3 18.86"/></g><path class="cls-20" d="M31.61,6.67l-.96-.55-2.99-1.73-7.7,4.45,2.99,1.72.96.56,3.31,1.91,7.69-4.45h0s-3.3-1.91-3.3-1.91Z"/><path class="cls-3" d="M27.66,4.54l-7.43,4.29,6.99,3.99,7.43-4.25-6.99-4.04Z"/><polygon class="cls-13" points="27.22 13.03 27.21 22.92 23.89 21.03 22.93 20.47 19.96 18.78 19.96 8.84 27.22 13.03"/><path class="cls-10" d="M27.22,13.03v9.89s7.7-4.41,7.7-4.41v-9.93l-7.7,4.45Z"/><polygon class="cls-8" points="23.89 11.13 23.89 21.03 22.93 20.47 22.93 10.58 23.89 11.13"/><polygon class="cls-11" points="31.61 6.67 28.92 8.23 27.96 8.79 23.91 11.12 23.89 11.14 22.92 10.58 22.95 10.56 27 8.23 27.96 7.67 30.65 6.12 31.61 6.67"/><path class="cls-20" d="M23.54,11.34l-.96-.55-3-1.73-7.7,4.45,2.99,1.73.97.56,3.31,1.91,7.69-4.45h0s-3.3-1.91-3.3-1.91Z"/><path class="cls-3" d="M19.58,9.21l-7.43,4.29,7,3.99,7.43-4.25-6.99-4.04Z"/><polygon class="cls-13" points="19.14 17.69 19.13 27.59 15.81 25.69 14.85 25.14 11.88 23.44 11.88 13.5 19.14 17.69"/><path class="cls-10" d="M19.14,17.69v9.89s7.7-4.41,7.7-4.41v-9.93l-7.7,4.44Z"/><polygon class="cls-8" points="15.81 15.8 15.81 25.69 14.85 25.14 14.85 15.25 15.81 15.8"/><polygon class="cls-11" points="23.54 11.34 20.85 12.89 19.88 13.45 15.84 15.79 15.81 15.8 14.85 15.25 14.87 15.23 18.92 12.89 19.88 12.33 22.58 10.79 23.54 11.34"/><polygon class="cls-18" points="25.64 17.39 22.11 19.43 22.11 16.39 25.64 14.36 25.64 17.39"/><polygon class="cls-5" points="25.3 15.27 22.44 16.92 22.44 16.58 25.3 14.93 25.3 15.27"/><polygon class="cls-14" points="25.3 15.88 22.44 17.53 22.44 17.38 25.3 15.73 25.3 15.88"/><polygon class="cls-14" points="25.3 16.28 22.44 17.92 22.44 17.78 25.3 16.13 25.3 16.28"/><polygon class="cls-14" points="25.3 16.71 22.44 18.35 22.44 18.21 25.3 16.55 25.3 16.71"/><polygon class="cls-14" points="25.3 17.11 22.44 18.75 22.44 18.6 25.3 16.95 25.3 17.11"/><polygon class="cls-18" points="34.15 12.85 30.63 14.88 30.63 11.85 34.15 9.81 34.15 12.85"/><polygon class="cls-5" points="33.82 10.72 30.96 12.37 30.96 12.03 33.82 10.38 33.82 10.72"/><polygon class="cls-14" points="33.82 11.33 30.96 12.98 30.96 12.83 33.82 11.18 33.82 11.33"/><polygon class="cls-14" points="33.82 11.73 30.96 13.38 30.96 13.23 33.82 11.58 33.82 11.73"/><polygon class="cls-14" points="33.82 12.16 30.96 13.81 30.96 13.66 33.82 12.01 33.82 12.16"/><polygon class="cls-14" points="33.82 12.56 30.96 14.21 30.96 14.05 33.82 12.41 33.82 12.56"/><g class="cls-21"><polygon class="cls-16" points="19.17 19.96 4.34 11.4 4.34 26.34 19.17 34.9 19.17 19.96"/></g><g class="cls-22"><polygon class="cls-16" points="19.17 19.96 34.91 10.88 34.91 25.82 19.17 34.9 19.17 19.96"/></g></g></g></svg>