<?xml version="1.0" encoding="UTF-8"?><svg xmlns="http://www.w3.org/2000/svg" viewBox="0 0 34.84 41.11"><defs><style>.cls-1,.cls-2{mix-blend-mode:multiply;}.cls-1,.cls-3,.cls-4,.cls-5,.cls-6,.cls-7,.cls-8,.cls-9,.cls-10,.cls-11,.cls-12,.cls-13,.cls-14,.cls-15,.cls-16,.cls-17,.cls-18,.cls-19,.cls-20{stroke-width:0px;}.cls-1,.cls-17{fill:#e8e8e8;}.cls-21{opacity:.4;}.cls-22{opacity:.6;}.cls-23{isolation:isolate;}.cls-3{fill:#f9c98a;}.cls-4{fill:#774a15;}.cls-5{fill:#4f2e16;}.cls-6{fill:#89570e;}.cls-7{fill:#895b1f;}.cls-8{fill:#9b7451;}.cls-9{fill:#a8732c;}.cls-10{fill:#dda866;}.cls-11{fill:#caaf8f;}.cls-12{fill:#e2ac62;}.cls-13{fill:#bc7c46;}.cls-14{fill:#b2aeab;}.cls-15{fill:#b78e44;}.cls-16{fill:#fff;}.cls-18{fill:#e5e0dc;}.cls-19{fill:#e5e5e5;}.cls-20{fill:#ffdda8;}</style></defs><g class="cls-23"><g id="Layer_1"><g class="cls-2"><polygon class="cls-19" points="34.5 30.38 15.94 41.11 15.47 40.84 14.93 40.52 14.15 40.06 11.75 38.68 9.11 37.16 7.78 36.39 5.39 35.01 2.82 33.52 1.48 32.74 1.01 32.47 0 31.89 18.56 21.18 19.57 21.76 33.49 29.8 34.5 30.38"/></g><polygon class="cls-7" points="34.83 30.4 17.19 40.59 .07 30.7 .07 30.3 17.71 20.51 34.83 30 34.83 30.4"/><polygon class="cls-15" points="34.84 30 17.19 40.19 16.43 39.75 15.16 39.02 12.89 37.7 10.38 36.25 9.11 35.53 6.83 34.21 4.4 32.79 3.12 32.06 .85 30.75 .07 30.29 .85 29.84 3.12 28.53 4.4 27.79 17.71 20.11 34.84 30"/><polygon class="cls-12" points="19.88 21.37 2.24 31.55 2.19 31.52 19.83 21.34 19.88 21.37"/><polygon class="cls-12" points="22.02 22.6 4.38 32.79 4.33 32.76 21.97 22.57 22.02 22.6"/><polygon class="cls-12" points="24.16 23.84 6.52 34.02 6.47 33.99 24.11 23.81 24.16 23.84"/><polygon class="cls-12" points="26.3 25.07 8.66 35.26 8.61 35.23 26.25 25.04 26.3 25.07"/><polygon class="cls-12" points="28.44 26.31 10.8 36.49 10.75 36.47 28.39 26.28 28.44 26.31"/><polygon class="cls-12" points="30.58 27.54 12.94 37.73 12.89 37.7 30.53 27.51 30.58 27.54"/><polygon class="cls-12" points="32.72 28.78 15.08 38.96 15.03 38.94 32.67 28.75 32.72 28.78"/><path class="cls-4" d="M3.72,27.84v4.58l-2.27-1.31v-2.07c.74-.43,1.51-.81,2.27-1.2Z"/><polygon class="cls-7" points="5 27.8 5 31.66 3.72 32.42 3.72 27.8 5 27.8"/><polygon class="cls-4" points="9.72 31.34 9.72 35.88 7.44 34.56 7.44 31.34 9.72 31.34"/><polygon class="cls-7" points="10.98 31.34 10.98 35.12 9.72 35.88 9.72 31.34 10.98 31.34"/><polygon class="cls-4" points="25.21 31.14 25.21 35.62 22.93 34.3 22.93 31.14 25.21 31.14"/><polygon class="cls-7" points="26.47 31.14 26.47 34.86 25.21 35.62 25.21 31.14 26.47 31.14"/><polygon class="cls-4" points="17.17 35.8 17.17 40.28 14.9 38.96 14.9 35.8 17.17 35.8"/><polygon class="cls-7" points="18.44 35.8 18.44 39.53 17.17 40.28 17.17 35.8 18.44 35.8"/><polygon class="cls-4" points="30.58 28.53 30.58 29.84 32.86 31.15 32.86 28.53 30.58 28.53"/><polygon class="cls-7" points="32.86 28.53 32.86 31.15 34.12 30.4 34.12 28.53 32.86 28.53"/><polygon class="cls-9" points="34.83 28.66 17.19 38.85 .07 28.96 .07 28.59 17.71 18.78 34.83 28.29 34.83 28.66"/><polygon class="cls-12" points="34.83 28.29 17.19 38.47 .07 28.59 17.71 18.4 34.83 28.29"/><polygon class="cls-6" points="19.88 19.65 2.24 29.84 2.19 29.81 19.83 19.62 19.88 19.65"/><polygon class="cls-6" points="22.02 20.89 4.38 31.07 4.33 31.05 21.97 20.86 22.02 20.89"/><polygon class="cls-6" points="24.16 22.12 6.52 32.31 6.47 32.28 24.11 22.1 24.16 22.12"/><polygon class="cls-6" points="26.3 23.36 8.66 33.55 8.61 33.52 26.25 23.33 26.3 23.36"/><polygon class="cls-6" points="28.44 24.59 10.8 34.78 10.75 34.75 28.39 24.57 28.44 24.59"/><polygon class="cls-6" points="30.58 25.83 12.94 36.02 12.89 35.99 30.53 25.8 30.58 25.83"/><polygon class="cls-6" points="32.72 27.07 15.08 37.25 15.03 37.22 32.67 27.04 32.72 27.07"/><polygon class="cls-4" points="17.19 40.59 17.17 40.18 .07 30.29 .07 30.7 17.19 40.59"/><polygon class="cls-1" points="18.33 28.61 18.38 28.58 9.4 23.38 .49 28.51 8.02 32.87 7.97 32.9 16.96 38.1 33.05 28.48 18.33 28.61"/><g class="cls-2"><polygon class="cls-17" points="6.95 24.43 15.94 29.63 24.85 24.5 15.86 19.29 6.95 24.43"/></g><path class="cls-20" d="M22.27,12.25l-.96-.55-3-1.73-7.7,4.45,2.99,1.73.96.55,3.31,1.91,7.69-4.45h0s-3.3-1.91-3.3-1.91Z"/><path class="cls-3" d="M18.31,10.12l-7.43,4.29,6.99,3.99,7.43-4.25-6.99-4.04Z"/><polygon class="cls-13" points="17.87 18.61 17.86 28.5 14.54 26.6 13.58 26.05 10.61 24.36 10.61 14.41 17.87 18.61"/><path class="cls-10" d="M17.87,18.61v9.89s7.7-4.41,7.7-4.41v-9.93l-7.7,4.45Z"/><polygon class="cls-8" points="14.54 16.71 14.54 26.6 13.58 26.05 13.58 16.16 14.54 16.71"/><polygon class="cls-11" points="22.27 12.25 19.58 13.81 18.61 14.36 14.57 16.7 14.54 16.71 13.57 16.16 13.6 16.14 17.65 13.81 18.61 13.25 21.31 11.7 22.27 12.25"/><path class="cls-20" d="M14.19,16.91l-.96-.55-3-1.73-7.7,4.45,2.99,1.73.96.55,3.31,1.91,7.69-4.45h0s-3.3-1.91-3.3-1.91Z"/><path class="cls-3" d="M10.23,14.78l-7.43,4.3,6.99,3.99,7.43-4.25-6.99-4.04Z"/><polygon class="cls-13" points="9.79 23.27 9.79 33.16 6.47 31.27 5.5 30.72 2.53 29.02 2.53 19.08 9.79 23.27"/><path class="cls-10" d="M9.79,23.27v9.89s7.7-4.41,7.7-4.41v-9.93l-7.7,4.45Z"/><polygon class="cls-8" points="6.47 21.38 6.47 31.27 5.5 30.72 5.5 20.82 6.47 21.38"/><polygon class="cls-11" points="14.19 16.91 11.5 18.47 10.54 19.03 6.49 21.36 6.46 21.38 5.5 20.82 5.53 20.81 9.57 18.47 10.54 17.91 13.23 16.36 14.19 16.91"/><g class="cls-2"><polygon class="cls-17" points="14.43 28.82 23.42 34.02 32.33 28.89 23.34 23.69 14.43 28.82"/></g><path class="cls-20" d="M29.75,16.64l-.96-.55-2.99-1.73-7.7,4.45,2.99,1.73.96.55,3.31,1.91,7.69-4.45h0s-3.3-1.91-3.3-1.91Z"/><path class="cls-3" d="M25.79,14.51l-7.43,4.29,6.99,3.99,7.43-4.25-6.99-4.04Z"/><polygon class="cls-13" points="25.35 22.99 25.34 32.89 22.03 30.99 21.06 30.44 18.09 28.75 18.09 18.81 25.35 22.99"/><path class="cls-10" d="M25.35,22.99v9.89s7.7-4.41,7.7-4.41v-9.93l-7.7,4.44Z"/><polygon class="cls-8" points="22.03 21.1 22.03 30.99 21.06 30.44 21.06 20.55 22.03 21.1"/><polygon class="cls-11" points="29.75 16.64 27.06 18.2 26.09 18.76 22.04 21.09 22.02 21.1 21.06 20.55 21.08 20.53 25.13 18.2 26.09 17.64 28.79 16.09 29.75 16.64"/><path class="cls-20" d="M21.67,21.3l-.96-.55-3-1.73-7.7,4.45,2.99,1.72.97.56,3.31,1.91,7.69-4.45h0s-3.3-1.91-3.3-1.91Z"/><path class="cls-3" d="M17.72,19.18l-7.43,4.3,7,3.99,7.43-4.25-6.99-4.04Z"/><polygon class="cls-13" points="17.28 27.66 17.27 37.55 13.95 35.66 12.98 35.11 10.01 33.41 10.01 23.47 17.28 27.66"/><path class="cls-10" d="M17.28,27.66v9.89s7.7-4.41,7.7-4.41v-9.93l-7.7,4.45Z"/><polygon class="cls-8" points="13.95 25.77 13.95 35.66 12.98 35.11 12.98 25.21 13.95 25.77"/><polygon class="cls-11" points="21.67 21.3 18.98 22.86 18.02 23.42 13.97 25.75 13.94 25.77 12.98 25.21 13 25.2 17.05 22.86 18.02 22.3 20.71 20.75 21.67 21.3"/><polygon class="cls-18" points="23.77 27.36 20.24 29.39 20.24 26.36 23.77 24.33 23.77 27.36"/><polygon class="cls-5" points="23.43 25.23 20.58 26.88 20.58 26.54 23.43 24.9 23.43 25.23"/><polygon class="cls-14" points="23.43 25.84 20.58 27.49 20.58 27.34 23.43 25.7 23.43 25.84"/><polygon class="cls-14" points="23.43 26.24 20.58 27.89 20.58 27.74 23.43 26.09 23.43 26.24"/><polygon class="cls-14" points="23.43 26.67 20.58 28.32 20.58 28.17 23.43 26.52 23.43 26.67"/><polygon class="cls-14" points="23.43 27.07 20.58 28.72 20.58 28.57 23.43 26.92 23.43 27.07"/><polygon class="cls-18" points="32.29 22.81 28.76 24.85 28.76 21.82 32.29 19.78 32.29 22.81"/><polygon class="cls-5" points="31.95 20.69 29.1 22.34 29.1 22 31.95 20.35 31.95 20.69"/><polygon class="cls-14" points="31.95 21.3 29.1 22.95 29.1 22.8 31.95 21.15 31.95 21.3"/><polygon class="cls-14" points="31.95 21.7 29.1 23.35 29.1 23.2 31.95 21.55 31.95 21.7"/><polygon class="cls-14" points="31.95 22.13 29.1 23.78 29.1 23.63 31.95 21.98 31.95 22.13"/><polygon class="cls-14" points="31.95 22.52 29.1 24.17 29.1 24.02 31.95 22.38 31.95 22.52"/><g class="cls-2"><polygon class="cls-17" points="6.95 14.46 15.94 19.67 24.85 14.53 15.86 9.33 6.95 14.46"/></g><path class="cls-20" d="M22.27,2.28l-.96-.55-3-1.73-7.7,4.45,2.99,1.73.96.56,3.31,1.9,7.69-4.44h0s-3.3-1.91-3.3-1.91Z"/><path class="cls-3" d="M18.31.15l-7.43,4.29,6.99,3.99,7.43-4.25L18.31.15Z"/><polygon class="cls-13" points="17.87 8.64 17.86 18.53 14.54 16.63 13.58 16.09 10.61 14.39 10.61 4.45 17.87 8.64"/><path class="cls-10" d="M17.87,8.64v9.89s7.7-4.41,7.7-4.41V4.19l-7.7,4.44Z"/><polygon class="cls-8" points="14.54 6.75 14.54 16.63 13.58 16.09 13.58 6.19 14.54 6.75"/><polygon class="cls-11" points="22.27 2.28 19.58 3.84 18.61 4.4 14.57 6.73 14.54 6.75 13.57 6.19 13.6 6.18 17.65 3.84 18.61 3.28 21.31 1.73 22.27 2.28"/><path class="cls-20" d="M14.19,6.95l-.96-.55-3-1.73-7.7,4.45,2.99,1.72.96.56,3.31,1.91,7.69-4.44h0s-3.3-1.91-3.3-1.91Z"/><path class="cls-3" d="M10.23,4.82l-7.43,4.3,6.99,3.99,7.43-4.25-6.99-4.04Z"/><polygon class="cls-13" points="9.79 13.3 9.79 23.19 6.47 21.3 5.5 20.75 2.53 19.05 2.53 9.11 9.79 13.3"/><path class="cls-10" d="M9.79,13.3v9.89s7.7-4.41,7.7-4.41v-9.93l-7.7,4.44Z"/><polygon class="cls-8" points="6.47 11.41 6.47 21.3 5.5 20.75 5.5 10.86 6.47 11.41"/><polygon class="cls-11" points="14.19 6.95 11.5 8.5 10.54 9.06 6.49 11.39 6.46 11.41 5.5 10.86 5.53 10.84 9.57 8.5 10.54 7.95 13.23 6.39 14.19 6.95"/><g class="cls-2"><polygon class="cls-17" points="14.43 18.86 23.42 24.05 32.33 18.92 23.34 13.72 14.43 18.86"/></g><path class="cls-20" d="M29.75,6.67l-.96-.55-2.99-1.73-7.7,4.45,2.99,1.72.96.56,3.31,1.91,7.69-4.45h0s-3.3-1.91-3.3-1.91Z"/><path class="cls-3" d="M25.79,4.54l-7.43,4.29,6.99,3.99,7.43-4.25-6.99-4.04Z"/><polygon class="cls-13" points="25.35 13.03 25.34 22.92 22.03 21.03 21.06 20.47 18.09 18.78 18.09 8.84 25.35 13.03"/><path class="cls-10" d="M25.35,13.03v9.89s7.7-4.41,7.7-4.41v-9.93l-7.7,4.45Z"/><polygon class="cls-8" points="22.03 11.13 22.03 21.03 21.06 20.47 21.06 10.58 22.03 11.13"/><polygon class="cls-11" points="29.75 6.67 27.06 8.23 26.09 8.79 22.04 11.12 22.02 11.14 21.06 10.58 21.08 10.56 25.13 8.23 26.09 7.67 28.79 6.12 29.75 6.67"/><path class="cls-20" d="M21.67,11.34l-.96-.55-3-1.73-7.7,4.45,2.99,1.73.97.56,3.31,1.91,7.69-4.45h0s-3.3-1.91-3.3-1.91Z"/><path class="cls-3" d="M17.72,9.21l-7.43,4.29,7,3.99,7.43-4.25-6.99-4.04Z"/><polygon class="cls-13" points="17.28 17.69 17.27 27.59 13.95 25.69 12.98 25.14 10.01 23.44 10.01 13.5 17.28 17.69"/><path class="cls-10" d="M17.28,17.69v9.89s7.7-4.41,7.7-4.41v-9.93l-7.7,4.44Z"/><polygon class="cls-8" points="13.95 15.8 13.95 25.69 12.98 25.14 12.98 15.25 13.95 15.8"/><polygon class="cls-11" points="21.67 11.34 18.98 12.89 18.02 13.45 13.97 15.79 13.94 15.8 12.98 15.25 13 15.23 17.05 12.89 18.02 12.33 20.71 10.79 21.67 11.34"/><polygon class="cls-18" points="23.77 17.39 20.24 19.43 20.24 16.39 23.77 14.36 23.77 17.39"/><polygon class="cls-5" points="23.43 15.27 20.58 16.92 20.58 16.58 23.43 14.93 23.43 15.27"/><polygon class="cls-14" points="23.43 15.88 20.58 17.53 20.58 17.38 23.43 15.73 23.43 15.88"/><polygon class="cls-14" points="23.43 16.28 20.58 17.92 20.58 17.78 23.43 16.13 23.43 16.28"/><polygon class="cls-14" points="23.43 16.71 20.58 18.35 20.58 18.21 23.43 16.55 23.43 16.71"/><polygon class="cls-14" points="23.43 17.11 20.58 18.75 20.58 18.6 23.43 16.95 23.43 17.11"/><polygon class="cls-18" points="32.29 12.85 28.76 14.88 28.76 11.85 32.29 9.81 32.29 12.85"/><polygon class="cls-5" points="31.95 10.72 29.1 12.37 29.1 12.03 31.95 10.38 31.95 10.72"/><polygon class="cls-14" points="31.95 11.33 29.1 12.98 29.1 12.83 31.95 11.18 31.95 11.33"/><polygon class="cls-14" points="31.95 11.73 29.1 13.38 29.1 13.23 31.95 11.58 31.95 11.73"/><polygon class="cls-14" points="31.95 12.16 29.1 13.81 29.1 13.66 31.95 12.01 31.95 12.16"/><polygon class="cls-14" points="31.95 12.56 29.1 14.21 29.1 14.05 31.95 12.41 31.95 12.56"/><g class="cls-21"><polygon class="cls-16" points="17.3 19.96 2.48 11.4 2.48 26.34 17.3 34.9 17.3 19.96"/></g><g class="cls-22"><polygon class="cls-16" points="17.3 19.96 33.05 10.88 33.05 25.82 17.3 34.9 17.3 19.96"/></g></g></g></svg>