<?xml version="1.0" encoding="utf-8"?>
<!-- Generator: Adobe Illustrator 28.1.0, SVG Export Plug-In . SVG Version: 6.00 Build 0)  -->
<svg version="1.1" id="Layer_1" xmlns="http://www.w3.org/2000/svg" xmlns:xlink="http://www.w3.org/1999/xlink" x="0px" y="0px"
	 viewBox="0 0 37 62" style="enable-background:new 0 0 37 62;" xml:space="preserve">
<style type="text/css">
	.st0{fill:#E5E5E5;}
	.st1{fill:#895B1F;}
	.st2{fill:#B78E44;}
	.st3{fill:#E2AC62;}
	.st4{fill:#774A15;}
	.st5{fill:#A8732C;}
	.st6{fill:#89570E;}
	.st7{fill:#E8E8E8;}
	.st8{fill:#FFDDA8;}
	.st9{fill:#F9C98A;}
	.st10{fill:#BC7C46;}
	.st11{fill:#DDA866;}
	.st12{fill:#9B7451;}
	.st13{fill:#CAAF8F;}
	.st14{fill:#E5E0DC;}
	.st15{fill:#4F2E16;}
	.st16{fill:#B2AEAB;}
	.st17{opacity:0.4;}
	.st18{fill:#FFFFFF;}
	.st19{opacity:0.6;}
</style>
<g>
	<g>
		<g>
			<g>
				<g>
					<polygon class="st0" points="36.51,50.84 17.96,61.56 17.15,61.1 15.82,60.32 13.43,58.94 10.79,57.42 9.46,56.66 7.07,55.27 
						4.5,53.78 3.16,53.01 0.77,51.63 -0.05,51.16 0.77,50.68 3.16,49.3 4.5,48.53 18.51,40.44 					"/>
				</g>
			</g>
			<g>
				<g>
					<polygon class="st1" points="36.51,50.66 18.87,60.85 1.75,50.96 1.75,50.56 19.39,40.78 36.51,50.26 					"/>
				</g>
			</g>
			<g>
				<g>
					<polygon class="st2" points="36.51,50.26 18.87,60.45 18.11,60.02 16.84,59.28 14.56,57.96 12.06,56.52 10.79,55.79 
						8.51,54.47 6.08,53.06 4.8,52.32 2.53,51.01 1.74,50.56 2.53,50.11 4.8,48.8 6.08,48.06 19.39,40.38 					"/>
				</g>
			</g>
			<g>
				<polygon class="st3" points="21.56,41.63 3.92,51.82 3.87,51.79 21.51,41.6 				"/>
			</g>
			<g>
				<polygon class="st3" points="23.7,42.87 6.06,53.05 6.01,53.02 23.65,42.84 				"/>
			</g>
			<g>
				<polygon class="st3" points="25.84,44.1 8.2,54.29 8.15,54.26 25.79,44.07 				"/>
			</g>
			<g>
				<polygon class="st3" points="27.98,45.34 10.34,55.52 10.29,55.49 27.93,45.31 				"/>
			</g>
			<g>
				<polygon class="st3" points="30.12,46.57 12.48,56.76 12.43,56.73 30.07,46.54 				"/>
			</g>
			<g>
				<polygon class="st3" points="32.26,47.81 14.62,57.99 14.56,57.96 32.21,47.78 				"/>
			</g>
			<g>
				<polygon class="st3" points="34.4,49.04 16.76,59.23 16.71,59.2 34.35,49.01 				"/>
			</g>
			<path class="st4" d="M5.4,48.1v4.58l-2.27-1.31V49.3C3.87,48.87,4.64,48.48,5.4,48.1z"/>
			<polygon class="st1" points="6.68,48.07 6.68,51.92 5.4,52.68 5.4,48.07 			"/>
			<polygon class="st4" points="11.39,51.61 11.39,56.15 9.12,54.82 9.12,51.61 			"/>
			<polygon class="st1" points="12.66,51.61 12.66,55.38 11.39,56.15 11.39,51.61 			"/>
			<polygon class="st4" points="26.88,51.4 26.88,55.88 24.6,54.57 24.6,51.4 			"/>
			<polygon class="st1" points="28.15,51.4 28.15,55.13 26.88,55.88 26.88,51.4 			"/>
			<polygon class="st4" points="18.85,56.07 18.85,60.55 16.58,59.23 16.58,56.07 			"/>
			<polygon class="st1" points="20.12,56.07 20.12,59.79 18.85,60.55 18.85,56.07 			"/>
			<polygon class="st4" points="32.26,48.79 32.26,50.1 34.54,51.41 34.54,48.79 			"/>
			<polygon class="st1" points="34.54,48.79 34.54,51.41 35.8,50.66 35.8,48.79 			"/>
			<g>
				<g>
					<g>
						<polygon class="st5" points="36.51,48.93 18.87,59.11 1.75,49.23 1.75,48.85 19.39,39.04 36.51,48.55 						"/>
					</g>
				</g>
			</g>
			<g>
				<g>
					<g>
						<polygon class="st3" points="36.51,48.55 18.87,58.74 1.75,48.85 19.39,38.67 						"/>
					</g>
				</g>
				<g>
					<polygon class="st6" points="21.56,39.92 3.92,50.11 3.87,50.07 21.51,39.89 					"/>
				</g>
				<g>
					<polygon class="st6" points="23.7,41.15 6.06,51.34 6.01,51.31 23.65,41.12 					"/>
				</g>
				<g>
					<polygon class="st6" points="25.84,42.39 8.2,52.57 8.15,52.55 25.79,42.36 					"/>
				</g>
				<g>
					<polygon class="st6" points="27.98,43.62 10.34,53.81 10.29,53.78 27.93,43.6 					"/>
				</g>
				<g>
					<polygon class="st6" points="30.12,44.86 12.48,55.05 12.43,55.02 30.07,44.83 					"/>
				</g>
				<g>
					<polygon class="st6" points="32.26,46.1 14.62,56.28 14.56,56.25 32.21,46.07 					"/>
				</g>
				<g>
					<polygon class="st6" points="34.4,47.33 16.76,57.52 16.71,57.49 34.35,47.3 					"/>
				</g>
			</g>
			<polygon class="st4" points="18.87,60.85 18.85,60.44 1.74,50.56 1.75,50.96 			"/>
		</g>
		<polygon class="st7" points="20.01,48.87 20.06,48.84 11.07,43.64 2.17,48.77 9.7,53.13 9.65,53.16 18.63,58.37 34.73,48.74 		"/>
		<g>
			<g>
				<g>
					<polygon class="st7" points="8.63,44.7 17.62,49.9 26.52,44.76 17.54,39.56 					"/>
				</g>
				<g>
					<g>
						<path class="st8" d="M23.94,32.51l-0.96-0.55l-2.99-1.73l-7.7,4.45l2.99,1.73l0.97,0.56l3.3,1.91l7.69-4.45l0-0.01
							L23.94,32.51z"/>
					</g>
					<g>
						<path class="st9" d="M19.99,30.39l-7.43,4.29l6.99,3.99l7.43-4.25L19.99,30.39z"/>
					</g>
					<polygon class="st10" points="19.55,38.87 19.54,48.76 16.22,46.87 15.26,46.32 12.29,44.62 12.29,34.68 					"/>
					<g>
						<path class="st11" d="M19.55,38.87l-0.01,9.89l7.71-4.41v-9.93L19.55,38.87z"/>
					</g>
				</g>
				<polygon class="st12" points="16.22,36.98 16.22,46.87 15.26,46.32 15.26,36.42 				"/>
				<polygon class="st13" points="23.94,32.51 21.25,34.07 20.29,34.63 16.24,36.96 16.21,36.98 15.25,36.42 15.28,36.4 
					19.33,34.07 20.29,33.51 22.98,31.96 				"/>
			</g>
			<g>
				<g>
					<g>
						<path class="st8" d="M15.87,37.18l-0.96-0.55l-2.99-1.73l-7.7,4.45l3,1.73l0.96,0.55l3.31,1.91l7.69-4.45l0,0L15.87,37.18z"/>
					</g>
					<g>
						<path class="st9" d="M11.91,35.05l-7.43,4.3l6.99,3.99l7.43-4.25L11.91,35.05z"/>
					</g>
					<polygon class="st10" points="11.47,43.54 11.46,53.43 8.15,51.53 7.18,50.98 4.21,49.29 4.21,39.35 					"/>
					<g>
						<path class="st11" d="M11.47,43.53l-0.01,9.89l7.71-4.41v-9.93L11.47,43.53z"/>
					</g>
				</g>
				<polygon class="st12" points="8.15,41.64 8.15,51.53 7.18,50.98 7.18,41.09 				"/>
				<polygon class="st13" points="15.87,37.18 13.18,38.73 12.21,39.29 8.17,41.63 8.14,41.64 7.18,41.09 7.2,41.07 11.25,38.73 
					12.21,38.18 14.91,36.63 				"/>
			</g>
			<g>
				<g>
					<polygon class="st7" points="16.11,49.08 25.1,54.29 34,49.15 25.02,43.95 					"/>
				</g>
				<g>
					<g>
						<path class="st8" d="M31.43,36.9l-0.96-0.55l-2.99-1.73l-7.7,4.45l2.99,1.73l0.96,0.55l3.3,1.91l7.69-4.44l0,0L31.43,36.9z"/>
					</g>
					<g>
						<path class="st9" d="M27.47,34.78l-7.43,4.29l6.99,3.99l7.43-4.25L27.47,34.78z"/>
					</g>
					<polygon class="st10" points="27.03,43.26 27.02,53.15 23.7,51.26 22.74,50.71 19.77,49.01 19.77,39.07 					"/>
					<g>
						<path class="st11" d="M27.03,43.26l-0.01,9.89l7.71-4.41v-9.93L27.03,43.26z"/>
					</g>
				</g>
				<polygon class="st12" points="23.7,41.36 23.7,51.26 22.74,50.71 22.74,40.81 				"/>
				<polygon class="st13" points="31.43,36.9 28.74,38.46 27.77,39.02 23.73,41.35 23.7,41.37 22.73,40.81 22.76,40.8 26.81,38.46 
					27.77,37.9 30.46,36.35 				"/>
			</g>
			<g>
				<g>
					<path class="st8" d="M23.35,41.57l-0.96-0.55l-2.99-1.73l-7.7,4.45l2.99,1.72l0.96,0.55l3.3,1.91l7.69-4.45l0.01,0L23.35,41.57
						z"/>
				</g>
				<g>
					<path class="st9" d="M19.39,39.44l-7.44,4.3l6.99,3.99l7.43-4.25L19.39,39.44z"/>
				</g>
				<polygon class="st10" points="18.95,47.92 18.94,57.82 15.63,55.92 14.66,55.37 11.69,53.67 11.69,43.74 				"/>
				<g>
					<path class="st11" d="M18.95,47.92l-0.01,9.89l7.71-4.41v-9.93L18.95,47.92z"/>
				</g>
			</g>
			<polygon class="st12" points="15.63,46.03 15.63,55.92 14.66,55.37 14.66,45.48 			"/>
			<polygon class="st13" points="23.35,41.57 20.66,43.13 19.69,43.69 15.65,46.02 15.62,46.03 14.66,45.48 14.68,45.46 
				18.73,43.13 19.69,42.57 22.39,41.02 			"/>
			<g>
				<g>
					<g>
						<polygon class="st14" points="25.45,47.62 21.92,49.66 21.92,46.63 25.45,44.59 						"/>
					</g>
					<polygon class="st15" points="25.11,45.5 22.26,47.15 22.26,46.81 25.11,45.16 					"/>
					<g>
						<polygon class="st16" points="25.11,46.11 22.26,47.76 22.26,47.61 25.11,45.96 						"/>
					</g>
					<g>
						<polygon class="st16" points="25.11,46.51 22.26,48.16 22.26,48.01 25.11,46.36 						"/>
					</g>
					<g>
						<polygon class="st16" points="25.11,46.94 22.26,48.59 22.26,48.44 25.11,46.79 						"/>
					</g>
					<g>
						<polygon class="st16" points="25.11,47.33 22.26,48.98 22.26,48.83 25.11,47.18 						"/>
					</g>
				</g>
			</g>
			<g>
				<g>
					<g>
						<polygon class="st14" points="33.96,43.07 30.44,45.11 30.44,42.08 33.96,40.05 						"/>
					</g>
					<polygon class="st15" points="33.63,40.95 30.77,42.6 30.77,42.26 33.63,40.62 					"/>
					<g>
						<polygon class="st16" points="33.63,41.57 30.77,43.21 30.77,43.06 33.63,41.41 						"/>
					</g>
					<g>
						<polygon class="st16" points="33.63,41.96 30.77,43.61 30.77,43.46 33.63,41.81 						"/>
					</g>
					<g>
						<polygon class="st16" points="33.63,42.39 30.77,44.04 30.77,43.89 33.63,42.24 						"/>
					</g>
					<g>
						<polygon class="st16" points="33.63,42.79 30.77,44.44 30.77,44.29 33.63,42.64 						"/>
					</g>
				</g>
			</g>
		</g>
		<g>
			<g>
				<g>
					<polygon class="st7" points="8.63,34.73 17.62,39.93 26.52,34.79 17.54,29.59 					"/>
				</g>
				<g>
					<g>
						<path class="st8" d="M23.94,22.54l-0.96-0.55l-2.99-1.73l-7.7,4.45l2.99,1.73l0.97,0.55l3.3,1.91l7.69-4.45l0,0L23.94,22.54z"
							/>
					</g>
					<g>
						<path class="st9" d="M19.99,20.42l-7.43,4.29l6.99,3.99l7.43-4.25L19.99,20.42z"/>
					</g>
					<polygon class="st10" points="19.55,28.9 19.54,38.79 16.22,36.9 15.26,36.35 12.29,34.65 12.29,24.71 					"/>
					<g>
						<path class="st11" d="M19.55,28.9l-0.01,9.89l7.71-4.41v-9.93L19.55,28.9z"/>
					</g>
				</g>
				<polygon class="st12" points="16.22,27.01 16.22,36.9 15.26,36.35 15.26,26.46 				"/>
				<polygon class="st13" points="23.94,22.54 21.25,24.1 20.29,24.66 16.24,26.99 16.21,27.01 15.25,26.46 15.28,26.44 19.33,24.1 
					20.29,23.55 22.98,21.99 				"/>
			</g>
			<g>
				<g>
					<g>
						<path class="st8" d="M15.87,27.21l-0.96-0.55l-2.99-1.73l-7.7,4.45l3,1.73l0.96,0.56l3.31,1.91l7.69-4.45l0,0L15.87,27.21z"/>
					</g>
					<g>
						<path class="st9" d="M11.91,25.08l-7.43,4.29l6.99,3.99l7.43-4.25L11.91,25.08z"/>
					</g>
					<polygon class="st10" points="11.47,33.57 11.46,43.46 8.15,41.57 7.18,41.02 4.21,39.32 4.21,29.38 					"/>
					<g>
						<path class="st11" d="M11.47,33.57l-0.01,9.89l7.71-4.41v-9.93L11.47,33.57z"/>
					</g>
				</g>
				<polygon class="st12" points="8.15,31.67 8.15,41.57 7.18,41.02 7.18,31.12 				"/>
				<polygon class="st13" points="15.87,27.21 13.18,28.77 12.21,29.33 8.17,31.66 8.14,31.68 7.18,31.12 7.2,31.1 11.25,28.77 
					12.21,28.21 14.91,26.66 				"/>
			</g>
			<g>
				<g>
					<polygon class="st7" points="16.11,39.12 25.1,44.32 34,39.19 25.02,33.98 					"/>
				</g>
				<g>
					<g>
						<path class="st8" d="M31.43,26.94l-0.96-0.55l-2.99-1.73l-7.7,4.45l2.99,1.73l0.96,0.56l3.3,1.91l7.69-4.45l0,0L31.43,26.94z"
							/>
					</g>
					<g>
						<path class="st9" d="M27.47,24.81l-7.43,4.29l6.99,3.99l7.43-4.25L27.47,24.81z"/>
					</g>
					<polygon class="st10" points="27.03,33.29 27.02,43.18 23.7,41.29 22.74,40.74 19.77,39.04 19.77,29.1 					"/>
					<g>
						<path class="st11" d="M27.03,33.29l-0.01,9.89l7.71-4.41v-9.93L27.03,33.29z"/>
					</g>
				</g>
				<polygon class="st12" points="23.7,31.4 23.7,41.29 22.74,40.74 22.74,30.84 				"/>
				<polygon class="st13" points="31.43,26.94 28.74,28.49 27.77,29.05 23.73,31.39 23.7,31.4 22.73,30.84 22.76,30.83 26.81,28.49 
					27.77,27.93 30.46,26.38 				"/>
			</g>
			<g>
				<g>
					<path class="st8" d="M23.35,31.6l-0.96-0.55l-2.99-1.73l-7.7,4.45l2.99,1.73l0.96,0.55l3.3,1.91l7.69-4.45l0.01,0L23.35,31.6z"
						/>
				</g>
				<g>
					<path class="st9" d="M19.39,29.48l-7.44,4.29l6.99,3.99l7.43-4.25L19.39,29.48z"/>
				</g>
				<polygon class="st10" points="18.95,37.96 18.94,47.85 15.63,45.95 14.66,45.4 11.69,43.71 11.69,33.77 				"/>
				<g>
					<path class="st11" d="M18.95,37.96l-0.01,9.89l7.71-4.41v-9.93L18.95,37.96z"/>
				</g>
			</g>
			<polygon class="st12" points="15.63,36.07 15.63,45.95 14.66,45.4 14.66,35.51 			"/>
			<polygon class="st13" points="23.35,31.6 20.66,33.16 19.69,33.72 15.65,36.05 15.62,36.07 14.66,35.51 14.68,35.49 18.73,33.16 
				19.69,32.6 22.39,31.05 			"/>
			<g>
				<g>
					<g>
						<polygon class="st14" points="25.45,37.65 21.92,39.69 21.92,36.66 25.45,34.62 						"/>
					</g>
					<polygon class="st15" points="25.11,35.53 22.26,37.18 22.26,36.84 25.11,35.19 					"/>
					<g>
						<polygon class="st16" points="25.11,36.14 22.26,37.79 22.26,37.64 25.11,35.99 						"/>
					</g>
					<g>
						<polygon class="st16" points="25.11,36.54 22.26,38.19 22.26,38.04 25.11,36.39 						"/>
					</g>
					<g>
						<polygon class="st16" points="25.11,36.97 22.26,38.62 22.26,38.47 25.11,36.82 						"/>
					</g>
					<g>
						<polygon class="st16" points="25.11,37.37 22.26,39.02 22.26,38.87 25.11,37.22 						"/>
					</g>
				</g>
			</g>
			<g>
				<g>
					<g>
						<polygon class="st14" points="33.96,33.11 30.44,35.15 30.44,32.12 33.96,30.08 						"/>
					</g>
					<polygon class="st15" points="33.63,30.99 30.77,32.63 30.77,32.3 33.63,30.65 					"/>
					<g>
						<polygon class="st16" points="33.63,31.6 30.77,33.25 30.77,33.1 33.63,31.45 						"/>
					</g>
					<g>
						<polygon class="st16" points="33.63,31.99 30.77,33.64 30.77,33.49 33.63,31.85 						"/>
					</g>
					<g>
						<polygon class="st16" points="33.63,32.42 30.77,34.07 30.77,33.92 33.63,32.27 						"/>
					</g>
					<g>
						<polygon class="st16" points="33.63,32.82 30.77,34.47 30.77,34.32 33.63,32.67 						"/>
					</g>
				</g>
			</g>
		</g>
		<g class="st17">
			<polygon class="st18" points="18.98,40.23 4.15,31.67 4.15,46.61 18.98,55.17 			"/>
		</g>
		<g class="st19">
			<polygon class="st18" points="18.98,40.23 34.72,31.15 34.72,46.09 18.98,55.17 			"/>
		</g>
	</g>
	<g>
		<g>
			<g>
				<g>
					<polygon class="st0" points="36.32,30.74 17.75,41.46 17.29,41.19 16.74,40.88 15.96,40.42 13.56,39.03 10.92,37.51 9.6,36.75 
						7.2,35.36 4.64,33.88 3.3,33.1 2.83,32.83 1.81,32.25 20.37,21.54 21.38,22.12 35.31,30.16 					"/>
				</g>
			</g>
			<g>
				<g>
					<polygon class="st1" points="36.65,30.76 19,40.94 1.88,31.06 1.88,30.66 19.52,20.87 36.65,30.36 					"/>
				</g>
			</g>
			<g>
				<g>
					<polygon class="st2" points="36.65,30.35 19,40.55 18.24,40.11 16.97,39.37 14.7,38.06 12.19,36.61 10.92,35.88 8.65,34.57 
						6.21,33.15 4.93,32.42 2.67,31.11 1.88,30.65 2.67,30.2 4.93,28.89 6.21,28.15 19.53,20.47 					"/>
				</g>
			</g>
			<g>
				<polygon class="st3" points="21.69,21.73 4.05,31.91 4,31.88 21.64,21.69 				"/>
			</g>
			<g>
				<polygon class="st3" points="23.83,22.96 6.19,33.15 6.14,33.11 23.78,22.93 				"/>
			</g>
			<g>
				<polygon class="st3" points="25.97,24.2 8.33,34.38 8.28,34.35 25.92,24.17 				"/>
			</g>
			<g>
				<polygon class="st3" points="28.11,25.43 10.47,35.62 10.42,35.59 28.06,25.4 				"/>
			</g>
			<g>
				<polygon class="st3" points="30.25,26.67 12.61,36.85 12.56,36.82 30.2,26.64 				"/>
			</g>
			<g>
				<polygon class="st3" points="32.39,27.9 14.75,38.09 14.7,38.06 32.34,27.87 				"/>
			</g>
			<g>
				<polygon class="st3" points="34.53,29.14 16.89,39.32 16.84,39.29 34.48,29.11 				"/>
			</g>
			<path class="st4" d="M5.54,28.2v4.58l-2.27-1.31v-2.07C4.01,28.97,4.78,28.58,5.54,28.2z"/>
			<polygon class="st1" points="6.81,28.16 6.81,32.02 5.54,32.77 5.54,28.16 			"/>
			<polygon class="st4" points="11.53,31.7 11.53,36.24 9.25,34.92 9.25,31.7 			"/>
			<polygon class="st1" points="12.79,31.7 12.79,35.48 11.53,36.24 11.53,31.7 			"/>
			<polygon class="st4" points="27.02,31.5 27.02,35.98 24.74,34.66 24.74,31.5 			"/>
			<polygon class="st1" points="28.28,31.5 28.28,35.22 27.02,35.98 27.02,31.5 			"/>
			<polygon class="st4" points="18.99,36.16 18.99,40.64 16.71,39.32 16.71,36.16 			"/>
			<polygon class="st1" points="20.25,36.16 20.25,39.88 18.99,40.64 18.99,36.16 			"/>
			<polygon class="st4" points="32.39,28.88 32.39,30.19 34.67,31.51 34.67,28.88 			"/>
			<polygon class="st1" points="34.67,28.88 34.67,31.51 35.94,30.75 35.94,28.88 			"/>
			<g>
				<g>
					<g>
						<polygon class="st5" points="36.65,29.02 19,39.21 1.88,29.32 1.88,28.95 19.52,19.13 36.65,28.64 						"/>
					</g>
				</g>
			</g>
			<g>
				<g>
					<g>
						<polygon class="st3" points="36.65,28.64 19,38.83 1.88,28.95 19.52,18.76 						"/>
					</g>
				</g>
				<g>
					<polygon class="st6" points="21.69,20.01 4.05,30.2 4,30.17 21.64,19.98 					"/>
				</g>
				<g>
					<polygon class="st6" points="23.83,21.25 6.19,31.43 6.14,31.4 23.78,21.22 					"/>
				</g>
				<g>
					<polygon class="st6" points="25.97,22.48 8.33,32.67 8.28,32.64 25.92,22.45 					"/>
				</g>
				<g>
					<polygon class="st6" points="28.11,23.72 10.47,33.9 10.42,33.87 28.06,23.69 					"/>
				</g>
				<g>
					<polygon class="st6" points="30.25,24.95 12.61,35.14 12.56,35.11 30.2,24.93 					"/>
				</g>
				<g>
					<polygon class="st6" points="32.39,26.19 14.75,36.38 14.7,36.35 32.34,26.16 					"/>
				</g>
				<g>
					<polygon class="st6" points="34.53,27.42 16.89,37.61 16.84,37.58 34.48,27.4 					"/>
				</g>
			</g>
			<polygon class="st4" points="19,40.94 18.99,40.54 1.88,30.65 1.88,31.06 			"/>
		</g>
		<polygon class="st7" points="20.14,28.97 20.19,28.93 11.21,23.73 2.3,28.87 9.83,33.23 9.78,33.26 18.77,38.46 34.86,28.84 		"/>
		<g>
			<g>
				<g>
					<polygon class="st7" points="8.76,24.79 17.75,29.99 26.66,24.85 17.67,19.65 					"/>
				</g>
				<g>
					<g>
						<path class="st8" d="M24.08,12.61l-0.96-0.55l-3-1.73l-7.7,4.45l2.99,1.73l0.96,0.55l3.31,1.91l7.69-4.45l0,0L24.08,12.61z"/>
					</g>
					<g>
						<path class="st9" d="M20.12,10.48l-7.43,4.29l6.99,3.99l7.43-4.25L20.12,10.48z"/>
					</g>
					<polygon class="st10" points="19.68,18.96 19.67,28.85 16.36,26.96 15.39,26.41 12.42,24.71 12.42,14.77 					"/>
					<g>
						<path class="st11" d="M19.68,18.96l-0.01,9.89l7.71-4.41v-9.93L19.68,18.96z"/>
					</g>
				</g>
				<polygon class="st12" points="16.36,17.07 16.36,26.96 15.39,26.41 15.39,16.52 				"/>
				<polygon class="st13" points="24.08,12.61 21.39,14.16 20.42,14.72 16.38,17.05 16.35,17.07 15.39,16.52 15.41,16.5 
					19.46,14.16 20.42,13.61 23.12,12.05 				"/>
			</g>
			<g>
				<g>
					<g>
						<path class="st8" d="M16,17.27l-0.96-0.55l-3-1.73l-7.7,4.45l2.99,1.73l0.96,0.55l3.31,1.91l7.69-4.45l0,0L16,17.27z"/>
					</g>
					<g>
						<path class="st9" d="M12.05,15.14l-7.43,4.3l6.99,3.99l7.43-4.25L12.05,15.14z"/>
					</g>
					<polygon class="st10" points="11.61,23.63 11.6,33.52 8.28,31.63 7.31,31.07 4.34,29.38 4.34,19.44 					"/>
					<g>
						<path class="st11" d="M11.61,23.63l-0.01,9.89l7.71-4.41v-9.93L11.61,23.63z"/>
					</g>
				</g>
				<polygon class="st12" points="8.28,21.73 8.28,31.63 7.31,31.07 7.31,21.18 				"/>
				<polygon class="st13" points="16,17.27 13.31,18.83 12.35,19.39 8.3,21.72 8.27,21.73 7.31,21.18 7.34,21.16 11.39,18.83 
					12.35,18.27 15.04,16.72 				"/>
			</g>
			<g>
				<g>
					<polygon class="st7" points="16.25,29.18 25.23,34.38 34.14,29.24 25.15,24.04 					"/>
				</g>
				<g>
					<g>
						<path class="st8" d="M31.56,17l-0.96-0.55l-2.99-1.73l-7.7,4.45l2.99,1.73l0.96,0.55l3.31,1.91l7.69-4.45l0.01,0L31.56,17z"/>
					</g>
					<g>
						<path class="st9" d="M27.61,14.87l-7.43,4.29l6.99,3.99l7.43-4.25L27.61,14.87z"/>
					</g>
					<polygon class="st10" points="27.16,23.35 27.16,33.24 23.84,31.35 22.87,30.8 19.9,29.11 19.9,19.16 					"/>
					<g>
						<path class="st11" d="M27.16,23.35l-0.01,9.89l7.71-4.41v-9.93L27.16,23.35z"/>
					</g>
				</g>
				<polygon class="st12" points="23.84,21.46 23.84,31.35 22.87,30.8 22.87,20.9 				"/>
				<polygon class="st13" points="31.56,17 28.87,18.56 27.91,19.11 23.86,21.45 23.83,21.46 22.87,20.9 22.9,20.89 26.94,18.56 
					27.91,18 30.6,16.44 				"/>
			</g>
			<g>
				<g>
					<path class="st8" d="M23.48,21.66l-0.96-0.55l-3-1.73l-7.7,4.45l2.99,1.72l0.97,0.56l3.31,1.91l7.69-4.45l0.01,0L23.48,21.66z"
						/>
				</g>
				<g>
					<path class="st9" d="M19.53,19.53l-7.43,4.3l7,3.99l7.43-4.25L19.53,19.53z"/>
				</g>
				<polygon class="st10" points="19.09,28.02 19.08,37.91 15.76,36.01 14.8,35.47 11.83,33.77 11.83,23.83 				"/>
				<g>
					<path class="st11" d="M19.09,28.02l-0.01,9.89l7.71-4.41v-9.93L19.09,28.02z"/>
				</g>
			</g>
			<polygon class="st12" points="15.76,26.13 15.76,36.01 14.8,35.47 14.8,25.57 			"/>
			<polygon class="st13" points="23.48,21.66 20.79,23.22 19.83,23.78 15.78,26.11 15.75,26.13 14.79,25.57 14.82,25.55 
				18.87,23.22 19.83,22.66 22.52,21.11 			"/>
			<g>
				<g>
					<g>
						<polygon class="st14" points="25.58,27.72 22.06,29.75 22.06,26.72 25.58,24.68 						"/>
					</g>
					<polygon class="st15" points="25.25,25.59 22.39,27.24 22.39,26.9 25.25,25.25 					"/>
					<g>
						<polygon class="st16" points="25.25,26.2 22.39,27.85 22.39,27.7 25.25,26.05 						"/>
					</g>
					<g>
						<polygon class="st16" points="25.25,26.6 22.39,28.25 22.39,28.1 25.25,26.45 						"/>
					</g>
					<g>
						<polygon class="st16" points="25.25,27.03 22.39,28.68 22.39,28.53 25.25,26.88 						"/>
					</g>
					<g>
						<polygon class="st16" points="25.25,27.43 22.39,29.07 22.39,28.93 25.25,27.28 						"/>
					</g>
				</g>
			</g>
			<g>
				<g>
					<g>
						<polygon class="st14" points="34.1,23.17 30.58,25.2 30.58,22.18 34.1,20.14 						"/>
					</g>
					<polygon class="st15" points="33.76,21.05 30.91,22.7 30.91,22.36 33.76,20.71 					"/>
					<g>
						<polygon class="st16" points="33.76,21.66 30.91,23.31 30.91,23.16 33.76,21.51 						"/>
					</g>
					<g>
						<polygon class="st16" points="33.76,22.06 30.91,23.7 30.91,23.56 33.76,21.91 						"/>
					</g>
					<g>
						<polygon class="st16" points="33.76,22.48 30.91,24.13 30.91,23.98 33.76,22.33 						"/>
					</g>
					<g>
						<polygon class="st16" points="33.76,22.88 30.91,24.53 30.91,24.38 33.76,22.73 						"/>
					</g>
				</g>
			</g>
		</g>
		<g>
			<g>
				<g>
					<polygon class="st7" points="8.76,14.82 17.75,20.03 26.66,14.89 17.67,9.69 					"/>
				</g>
				<g>
					<g>
						<path class="st8" d="M24.08,2.64l-0.96-0.55l-3-1.73l-7.7,4.45l2.99,1.73l0.96,0.56l3.31,1.9l7.69-4.44l0,0L24.08,2.64z"/>
					</g>
					<g>
						<path class="st9" d="M20.12,0.51l-7.43,4.29l6.99,3.99l7.43-4.25L20.12,0.51z"/>
					</g>
					<polygon class="st10" points="19.68,8.99 19.67,18.89 16.36,16.99 15.39,16.44 12.42,14.75 12.42,4.81 					"/>
					<g>
						<path class="st11" d="M19.68,8.99l-0.01,9.89l7.71-4.41V4.55L19.68,8.99z"/>
					</g>
				</g>
				<polygon class="st12" points="16.36,7.1 16.36,16.99 15.39,16.44 15.39,6.55 				"/>
				<polygon class="st13" points="24.08,2.64 21.39,4.2 20.42,4.75 16.38,7.09 16.35,7.1 15.39,6.55 15.41,6.53 19.46,4.2 
					20.42,3.64 23.12,2.09 				"/>
			</g>
			<g>
				<g>
					<g>
						<path class="st8" d="M16,7.31l-0.96-0.55l-3-1.73l-7.7,4.45l2.99,1.72l0.96,0.56l3.31,1.91l7.69-4.44l0,0L16,7.31z"/>
					</g>
					<g>
						<path class="st9" d="M12.05,5.18L4.62,9.47l6.99,3.99l7.43-4.25L12.05,5.18z"/>
					</g>
					<polygon class="st10" points="11.61,13.66 11.6,23.55 8.28,21.66 7.31,21.11 4.34,19.41 4.34,9.47 					"/>
					<g>
						<path class="st11" d="M11.61,13.66l-0.01,9.89l7.71-4.41V9.22L11.61,13.66z"/>
					</g>
				</g>
				<polygon class="st12" points="8.28,11.77 8.28,21.66 7.31,21.11 7.31,11.21 				"/>
				<polygon class="st13" points="16,7.31 13.31,8.86 12.35,9.42 8.3,11.75 8.27,11.77 7.31,11.21 7.34,11.2 11.39,8.86 12.35,8.3 
					15.04,6.75 				"/>
			</g>
			<g>
				<g>
					<polygon class="st7" points="16.25,19.21 25.23,24.41 34.14,19.28 25.15,14.08 					"/>
				</g>
				<g>
					<g>
						<path class="st8" d="M31.56,7.03L30.6,6.48l-2.99-1.73L19.9,9.2l2.99,1.72l0.96,0.56l3.31,1.91l7.69-4.45l0.01,0L31.56,7.03z"
							/>
					</g>
					<g>
						<path class="st9" d="M27.61,4.9L20.17,9.2l6.99,3.99l7.43-4.25L27.61,4.9z"/>
					</g>
					<polygon class="st10" points="27.16,13.39 27.16,23.28 23.84,21.38 22.87,20.83 19.9,19.14 19.9,9.2 					"/>
					<g>
						<path class="st11" d="M27.16,13.39l-0.01,9.89l7.71-4.41V8.94L27.16,13.39z"/>
					</g>
				</g>
				<polygon class="st12" points="23.84,11.49 23.84,21.38 22.87,20.83 22.87,10.94 				"/>
				<polygon class="st13" points="31.56,7.03 28.87,8.59 27.91,9.15 23.86,11.48 23.83,11.5 22.87,10.94 22.9,10.92 26.94,8.59 
					27.91,8.03 30.6,6.48 				"/>
			</g>
			<g>
				<g>
					<path class="st8" d="M23.48,11.69l-0.96-0.55l-3-1.73l-7.7,4.45l2.99,1.73l0.97,0.56l3.31,1.91l7.69-4.45l0.01,0L23.48,11.69z"
						/>
				</g>
				<g>
					<path class="st9" d="M19.53,9.57l-7.43,4.29l7,3.99l7.43-4.25L19.53,9.57z"/>
				</g>
				<polygon class="st10" points="19.09,18.05 19.08,27.94 15.76,26.05 14.8,25.5 11.83,23.8 11.83,13.86 				"/>
				<g>
					<path class="st11" d="M19.09,18.05l-0.01,9.89l7.71-4.41v-9.93L19.09,18.05z"/>
				</g>
			</g>
			<polygon class="st12" points="15.76,16.16 15.76,26.05 14.8,25.5 14.8,15.6 			"/>
			<polygon class="st13" points="23.48,11.69 20.79,13.25 19.83,13.81 15.78,16.14 15.75,16.16 14.79,15.6 14.82,15.59 18.87,13.25 
				19.83,12.69 22.52,11.14 			"/>
			<g>
				<g>
					<g>
						<polygon class="st14" points="25.58,17.75 22.06,19.78 22.06,16.75 25.58,14.72 						"/>
					</g>
					<polygon class="st15" points="25.25,15.63 22.39,17.28 22.39,16.93 25.25,15.29 					"/>
					<g>
						<polygon class="st16" points="25.25,16.23 22.39,17.88 22.39,17.73 25.25,16.09 						"/>
					</g>
					<g>
						<polygon class="st16" points="25.25,16.64 22.39,18.28 22.39,18.13 25.25,16.48 						"/>
					</g>
					<g>
						<polygon class="st16" points="25.25,17.06 22.39,18.71 22.39,18.57 25.25,16.91 						"/>
					</g>
					<g>
						<polygon class="st16" points="25.25,17.46 22.39,19.11 22.39,18.96 25.25,17.31 						"/>
					</g>
				</g>
			</g>
			<g>
				<g>
					<g>
						<polygon class="st14" points="34.1,13.2 30.58,15.24 30.58,12.21 34.1,10.17 						"/>
					</g>
					<polygon class="st15" points="33.76,11.08 30.91,12.73 30.91,12.39 33.76,10.74 					"/>
					<g>
						<polygon class="st16" points="33.76,11.69 30.91,13.34 30.91,13.19 33.76,11.54 						"/>
					</g>
					<g>
						<polygon class="st16" points="33.76,12.09 30.91,13.74 30.91,13.59 33.76,11.94 						"/>
					</g>
					<g>
						<polygon class="st16" points="33.76,12.52 30.91,14.17 30.91,14.02 33.76,12.37 						"/>
					</g>
					<g>
						<polygon class="st16" points="33.76,12.92 30.91,14.56 30.91,14.41 33.76,12.77 						"/>
					</g>
				</g>
			</g>
		</g>
		<g class="st17">
			<polygon class="st18" points="19.11,20.32 4.29,11.76 4.29,26.7 19.11,35.26 			"/>
		</g>
		<g class="st19">
			<polygon class="st18" points="19.11,20.32 34.86,11.24 34.86,26.18 19.11,35.26 			"/>
		</g>
	</g>
</g>
</svg>
